<svg id="Layer_1" data-name="Layer 1" xmlns="http://www.w3.org/2000/svg" viewBox="0 0 682.34 534.35"><path d="M542.19,235.55a187,187,0,0,0-38.43-69.18c-18.17-20.93-41.32-37.63-65.48-51-25.06-13.88-52.49-23.73-81.1-26.53-29.3-2.87-58.66,2.89-86.24,12.63-28.44,10-55.33,24.27-80.91,40.15-22.43,13.93-44.08,31.32-57.42,54.53a88.92,88.92,0,0,0-11.77,34.75,82.52,82.52,0,0,0,3.57,34.72c3.59,10.85,9.87,21,18.64,28.47,11,9.34,24.92,13.21,38.75,16.27,5.14,1.14,10.75,2.45,15.72.68a4.34,4.34,0,0,0,.93.73c.37,19.26,12.47,35.92,28.21,46.35,18.94,12.56,42.59,14.68,64.73,14.31,12.53-.21,25.05-1,37.57-1.66,1.31,21.73,5.74,43.7,15.52,63.24a116.22,116.22,0,0,0,8.93,15.15A81,81,0,0,0,365,462.72c4.55,4.11,10.12,7.18,16.38,7.18a16.42,16.42,0,0,0,8.37-2.3,15.61,15.61,0,0,0,5.8-6.78c2.5-5.07,3.05-11.16,3.47-16.73a101.67,101.67,0,0,0,.26-14.5,84.93,84.93,0,0,0,22.87,4.18,81.52,81.52,0,0,0,52.83-17.06c7.85-6.07,15.54-13.86,19.84-22.91,3.08-6.49,4.09-14.3.8-20.35a95.16,95.16,0,0,0,47.15-52.07C552.73,294.13,550.28,263,542.19,235.55Zm-1,60.63a88.06,88.06,0,0,1-37.68,63.32,85.36,85.36,0,0,1-15.34,8.43c-3.31,1.4-2.21,5.65.13,7.34,2.11,1.52,2.51,4,2.29,6.69a23.74,23.74,0,0,1-3.29,9.83c-4.09,7-10.21,13.07-16.56,18a75.42,75.42,0,0,1-74.92,10.51c-7.85-3.18-15.94-7.64-21.42-14.26-4.91-5.93-7.31-14.24-1-20.18,6.78-6.39,16.59-6.22,25.28-5.41,5.94.56,11.87,1.26,17.81,1.9C422.23,383,428,384,433.8,384c5.1.06,10.46-1.1,14.15-4.85a13.34,13.34,0,0,0,3.55-13.62c-.56-1.83-2.74-3.29-4.62-2.59-2.05.77-2.36,3.15-1.8,5,1,3.35-3.17,6.43-5.82,7.34-4.84,1.65-10.38.61-15.34.07l-17.32-1.86a150,150,0,0,0-16.67-1.35c-9.29,0-19.82,3.16-24.76,11.72-5.06,8.79-2.25,19,3.79,26.54s14.33,12.69,23,16.45c0,.09,0,.19,0,.28.11,1,.17,1.93.22,2.89l.06,1.63c0,.22,0,.45,0,.67v.36q0,3.7-.21,7.41c-.14,2.39-.34,4.78-.63,7.15-.12,1-.26,1.95-.43,2.92-.07.41-.14.82-.22,1.22,0,0-.13.6-.15.73-.08.33-.16.66-.25,1a24.82,24.82,0,0,1-1.17,3.33s-.36.69-.34.68c-.1.17-.2.35-.31.52s-.35.53-.54.79c-.06.09-.54.68-.54.7a9.2,9.2,0,0,1-1.21,1.05c-.22.17-.45.32-.68.47a2.28,2.28,0,0,1-.21.11,13.58,13.58,0,0,1-1.67.68l-.87.24-.08,0-.44.07a12.67,12.67,0,0,1-6.75-.76,21.42,21.42,0,0,1-5.84-3.67,53.38,53.38,0,0,1-5.69-5.86c-.1-.12-.5-.58-.49-.58l-.52-.63-1.26-1.58c-.82-1.07-1.63-2.15-2.41-3.24A109.15,109.15,0,0,1,351,431.72a.75.75,0,0,0-.08-.14c-.17-.36-.35-.72-.53-1.09-.27-.54-.53-1.09-.78-1.63q-.9-1.92-1.74-3.87c-1.06-2.48-2-5-3-7.54s-1.71-5-2.46-7.54c-.36-1.24-.71-2.49-1.05-3.73l-.51-2-.07-.25-.3-1.27a193.76,193.76,0,0,1-4.82-36.28,4.22,4.22,0,0,0-4-3.85c-11.86.6-23.72,1.33-35.6,1.72-11.2.37-22.53.38-33.63-1.26a102.84,102.84,0,0,1-16.36-3.74,64.85,64.85,0,0,1-12.71-5.51c-2-1.12-3.92-2.33-5.79-3.64-1.08-.75-1.17-.82-2.2-1.63s-1.83-1.46-2.72-2.23c-1.71-1.49-3.35-3.06-4.9-4.71l-1.11-1.22-.6-.69a.55.55,0,0,1-.08-.1c-.73-.87-1.43-1.76-2.11-2.68a55.65,55.65,0,0,1-4-6.18l-.42-.79-.15-.29,0-.05c-.28-.6-.57-1.18-.83-1.78-.48-1.08-.92-2.18-1.32-3.29s-.79-2.35-1.11-3.55l-.09-.38c-.05-.21-.14-.63-.16-.7-.13-.64-.26-1.28-.36-1.92-.2-1.17-.35-2.35-.44-3.54-.05-.6-.09-1.2-.11-1.79,0,.06,0-.49,0-.67v-.19c0-.24,0-.49,0-.73a4.72,4.72,0,0,0-1.47-3.67l.18-.68q.4-1.56.9-3.09c.65-2,1.4-4,2.24-6,.37-.88.76-1.74,1.17-2.6.23-.48.47-1,.71-1.44l.05-.1,0-.05c.16-.32.33-.63.5-.94q1.5-2.74,3.22-5.35a70,70,0,0,1,17-18c1.72-1.28,3.49-2.5,5.31-3.63a53.42,53.42,0,0,1,5-2.8A69.93,69.93,0,0,1,251.47,258a55.22,55.22,0,0,1,11.84-2.27,48.88,48.88,0,0,1,5.93-.15c1,0,2,.1,2.95.19.06,0,.87.11.95.12.57.08,1.13.17,1.69.27a40.93,40.93,0,0,1,6.55,1.7l.63.23.21.08.17.08c.51.22,1,.44,1.51.68a29.32,29.32,0,0,1,2.85,1.57c.39.25.78.52,1.17.79,0,0,.79.62.91.72.77.65,1.48,1.36,2.18,2.08l.26.29c.11.14.22.27.32.41.33.42.64.86.93,1.31s.56.91.83,1.38c0,0,0,.11.09.18s.17.37.25.56a40,40,0,0,1-.48,4.76c-.09.51-.18,1-.29,1.53,0,.15-.06.3-.1.46l-.11.46c-.27,1-.57,2.06-.92,3.07A36.55,36.55,0,0,1,286.35,289a52.83,52.83,0,0,1-3.85,4.72l-.1.12-.11.11-.48.49c-.36.37-.73.73-1.1,1.09-.79.76-1.6,1.49-2.44,2.21a69.67,69.67,0,0,1-10.53,7.43c-.69.4-.46.27-1.25.7l-1.59.85c-1.13.57-2.27,1.13-3.42,1.66-2.31,1.06-4.67,2-7,2.89-4.12,1.59-1.42,8.87,2.76,7.43A79.3,79.3,0,0,0,281.65,305a64,64,0,0,0,5.8-5.49h0c8.59,1.14,17.06,3,25.49,5,9.19,2.14,18.31,4.53,27.44,6.9A2.94,2.94,0,0,0,342,312a2.85,2.85,0,0,0,.72,0c16.62,4.33,33.4,8.93,50.52,10.71a113.48,113.48,0,0,0,25.12-.52,161.31,161.31,0,0,0,29.41-6.13c7.56-2.38,14.9-5.5,21-10.6a83,83,0,0,0,16.65-19.52,133.3,133.3,0,0,0,10.45-20.3,82.5,82.5,0,0,0,4.26-12.21,12.61,12.61,0,0,0,.36-1.77,4.31,4.31,0,0,0-2.95-4.55,3.08,3.08,0,0,0-3.73,2.87v0l0,.09c-.17.63-.37,1.25-.56,1.87-.65,2.13-1.39,4.23-2.18,6.3q-1.64,4.32-3.57,8.52-1.11,2.43-2.32,4.82l-.24.46-.1.2-.65,1.22c-.49.92-1,1.83-1.51,2.73a108.79,108.79,0,0,1-6.54,10.14c-1.22,1.67-2.5,3.3-3.83,4.87-.62.73-1.24,1.44-1.89,2.15-.46.51-1.1,1.18-1.95,2a50.66,50.66,0,0,1-9,7.27l-.76.45-.82.44c-.86.45-1.74.88-2.62,1.29-1.75.8-3.53,1.52-5.33,2.19a135.48,135.48,0,0,1-26.84,6.68,126.7,126.7,0,0,1-26.66,1.68c-.78,0-1.57-.1-2.35-.17l-1.28-.12h-.11L392,315q-2.88-.33-5.75-.78c-4.06-.63-8.1-1.4-12.12-2.24-8.94-1.87-17.81-4.1-26.66-6.36l-2.25-.58a30.34,30.34,0,0,1,.55-4.13q.09-.48.42-1.59c.19-.64.4-1.28.63-1.9s.48-1.26.75-1.87.55-1.19.73-1.53a28.77,28.77,0,0,1,10.85-11.34,3.4,3.4,0,0,0,1.57-4.34c-.52-1.41-2.39-3.07-4-2.25A31.86,31.86,0,0,0,343,289.28a35.47,35.47,0,0,0-3.54,9.2,39.65,39.65,0,0,0-.84,4.86c-14.81-3.86-29.65-7.74-44.77-10.08-.42-.07-.85-.12-1.28-.18a42.82,42.82,0,0,0,7.56-23.32c13.71-11.4,27.88-22.75,44.41-29.52a81.75,81.75,0,0,1,12.39-4c1.09-.26,1.19-.28,2.09-.45s2-.35,3-.49c1.91-.27,3.83-.45,5.76-.56s3.85-.13,5.78-.08c.9,0,1.8.08,2.7.14,1.27.09,1.42.1,2.51.24a58.6,58.6,0,0,1,11.1,2.48,36,36,0,0,1,5.33,2.14,47.92,47.92,0,0,1,5.45,3.08l1.15.79.38.26.38.3c.83.64,1.63,1.31,2.41,2s1.54,1.43,2.27,2.19c.37.38.72.77,1.07,1.16l.31.35s.32.4.41.51c1.18,1.46,3.17,2.5,4.88,1.16a4.12,4.12,0,0,0,.51-5.42c-8.12-10.08-19.67-16-32.08-18.19a5.12,5.12,0,0,0-1.77-2.15,94.91,94.91,0,0,1-8.36-6.43,52.92,52.92,0,0,1-3.84-3.65,23.75,23.75,0,0,1-3-3.71c-.47-.71-.9-1.44-1.32-2.18a.24.24,0,0,0,0-.07c-.08-.16-.15-.31-.22-.47-.21-.44-.39-.89-.57-1.34s-.29-.8-.42-1.21c-.05-.13-.2-.66-.24-.79a21.71,21.71,0,0,1-.48-3.1c-.33-3.95.54-8.45,1.49-12.34a109,109,0,0,1,4.89-14.51,4.39,4.39,0,0,0-1.92-5.17c-1.83-1-3.57-.1-4.4,1.63a73.8,73.8,0,0,0-4.73,13.58,56.24,56.24,0,0,0-2.15,15.68c.27,8.84,5.29,16.38,11.67,22.15,1.17,1.06,2.4,2.06,3.65,3-18.19,0-35.13,7.57-50.05,17.46a269.71,269.71,0,0,0-22.95,17.45c-4.13-6-10.53-10-17.69-12.07-8.75-2.5-17.92-2.07-26.72-.1-17.77,4-33.76,15.12-44.41,29.79a73.39,73.39,0,0,0-11.24,23.24,3.15,3.15,0,0,0-.8.4c-2.38,1.66-5.4,1.47-8.14,1-3.36-.53-6.69-1.41-10-2.21-7-1.69-14-3.59-20.46-6.68a51.23,51.23,0,0,1-23.1-22c-10.29-18.8-9.81-42.64-1.56-62,10-23.41,29.34-41.38,49.91-55.59a401.22,401.22,0,0,1,34.74-21.11l1.29-.7a78.89,78.89,0,0,0-8.29,16.87c-4.46,12.71-5.48,26.66-4.76,40a103.11,103.11,0,0,0,2.6,19.1,47,47,0,0,0-21.35,10.76,4,4,0,0,0-.48,5.14c1,1.42,3.15,2.4,4.63,1.1a42.4,42.4,0,0,1,41-8.32c1.91.63,3.61-1.15,3.8-2.92a4.4,4.4,0,0,0-3-4.63,46.49,46.49,0,0,0-17.91-2.11,129,129,0,0,1-2.43-15.45,111,111,0,0,1,0-18.86,85.91,85.91,0,0,1,3.18-18,74.35,74.35,0,0,1,6.88-15.72,75.12,75.12,0,0,1,5.14-7.73,63.17,63.17,0,0,1,5.18-6,3.7,3.7,0,0,0,.75-1.07q11.45-5.7,23.24-10.64a273.42,273.42,0,0,1,45.27-14.69c-2.11,1.92-4.1,4-5.95,6a71,71,0,0,0-16.09,28.73c-1,3.49-1.77,7.05-2.4,10.63a74.09,74.09,0,0,0-1.33,10.58,4.89,4.89,0,0,0,.13,1.32,58.63,58.63,0,0,0-13.76.36,3.29,3.29,0,0,0-2.79,3.87c.27,1.67,1.75,3.85,3.74,3.59a54.62,54.62,0,0,1,21.46,1.31,53.2,53.2,0,0,1,9.81,3.57,74.31,74.31,0,0,1,9.52,5.75,3,3,0,0,0,4.21-1.24,4.31,4.31,0,0,0-1-5,56.12,56.12,0,0,0-21.58-10.54c-1.18-.29-2.36-.55-3.56-.78a3.4,3.4,0,0,0,.15-.57c1.05-5.65,1.57-11.52,2.95-17a68.84,68.84,0,0,1,6.09-16.28A71.73,71.73,0,0,1,311,103.26,44.81,44.81,0,0,1,317,99.15a28.22,28.22,0,0,1,3.26-1.5c.23-.09.48-.16.71-.24A172.9,172.9,0,0,1,340.3,96c23.56-.3,46.89,4.89,68.71,13.65-11.16,1.28-22,6.72-30.76,13.48-7.12,5.5-13.6,12.25-17.8,20.26a3.85,3.85,0,0,0,.65,4.7c1.11,1,3.24,1.28,4.11-.23a60.43,60.43,0,0,1,14.9-16.74,69.37,69.37,0,0,1,20.29-11.65c6.92-2.48,14.06-3.52,21.24-1.87a42.11,42.11,0,0,1,5.48,1.65c.85.32,1.14.43,2.12.86s1.94.89,2.9,1.37a112.79,112.79,0,0,1,10.69,6.23c7.44,4.79,14.7,10.37,22.87,13.88A210.76,210.76,0,0,1,486,158.18,183.54,183.54,0,0,1,505.14,179a56.47,56.47,0,0,0-7.5-3.65c-11.11-4.4-23.63-4.29-35-.85a54.36,54.36,0,0,0-17.26,8.89,36.62,36.62,0,0,0-10.72-9.88,32.4,32.4,0,0,0-10.16-4c-4.42-.89-4.63,6.2-.75,7.08a25.85,25.85,0,0,1,9.53,4.21l.47.33.07.06c.33.25.65.51,1,.77.74.6,1.45,1.23,2.13,1.88s1.17,1.18,1.73,1.8l.33.38.18.22c.29.38.59.75.87,1.13a33.51,33.51,0,0,1,2.71,4.34l.41.85c.19.44.38.87.56,1.31.3.77.58,1.55.83,2.34.11.36.21.72.31,1.08,0,0,.21.86.23,1,.16.81.3,1.63.39,2.45s.17,1.73.19,2.6c0,.11,0,.9,0,1a11.8,11.8,0,0,0,.07,2.06,4.17,4.17,0,0,0,2.87,3.49A3,3,0,0,0,452,208a15.71,15.71,0,0,0,.36-5.76,30.39,30.39,0,0,0-.64-4.55,38.11,38.11,0,0,0-2.83-8.25,53.32,53.32,0,0,1,30.1-9.93A45,45,0,0,1,494.67,182a52.07,52.07,0,0,1,13.16,7.17,62.93,62.93,0,0,1,6.79,6.06c.45.47.91,1,1.35,1.44.26.29.53.58.79.88l.45.53c1,1.17,1.88,2.4,2.85,3.59a6.21,6.21,0,0,0,.56.59A171.88,171.88,0,0,1,529,219.3C539.19,243.29,544.36,270.16,541.21,296.18ZM293.44,267.71ZM493.87,250.1h0a1.46,1.46,0,0,1-.05.2Z"/><polygon points="404.57 63.17 414.11 66.15 417.32 55.87 414.24 46.59 415.47 39.02 405.6 37.41 403.98 47.41 406.82 55.97 404.57 63.17"/><polygon points="455.49 73.8 457.82 64.52 462.62 58.33 454.72 52.2 448.63 60.05 446.46 68.7 441.04 74.15 448.13 81.2 455.49 73.8"/><polygon points="490.56 89.39 494.99 82.63 499.64 74.91 491.07 69.75 486.57 77.23 481.38 85.17 478.61 94.67 488.21 97.46 490.56 89.39"/><polygon points="524.38 114.91 528.93 106.69 534.97 101.48 528.44 93.91 521.05 100.28 516.76 108.02 510.32 112.49 516.03 120.7 524.38 114.91"/><polygon points="554.87 146.61 559.42 138.39 565.46 133.19 558.93 125.61 551.54 131.98 547.25 139.73 540.81 144.2 546.52 152.41 554.87 146.61"/><polygon points="84.34 246.38 91.72 247.97 93.82 238.19 83.29 235.93 74.33 239.84 66.67 239.31 65.98 249.29 76.08 249.99 84.34 246.38"/><polygon points="82.46 213.87 92.45 212.22 90.83 202.36 82.54 203.72 74.7 202.31 65.74 201.09 64.39 211 73.03 212.17 82.46 213.87"/><polygon points="88.41 178.9 95.31 181.97 99.38 172.84 89.56 168.46 79.99 170.39 72.6 168.27 69.85 177.89 79.58 180.67 88.41 178.9"/><polygon points="571.36 191.73 577.04 185.53 584 181.41 591.57 176.54 586.16 168.13 578.82 172.86 570.67 177.69 563.99 184.98 571.36 191.73"/><polygon points="104.43 309.94 111.49 306.55 107.15 297.54 98.21 301.84 92.39 308.6 85.1 311.07 88.31 320.54 98.19 317.19 104.43 309.94"/><polygon points="573.97 216.92 577.7 226.2 585.49 223.06 593.45 222.76 602.46 222.02 601.64 212.05 592.95 212.77 583.37 213.14 573.97 216.92"/><polygon points="599.78 251.82 591.54 255.48 584.15 253.94 582.13 263.74 592.67 265.92 601.6 261.95 609.26 262.43 609.89 252.45 599.78 251.82"/><polygon points="369.08 59.58 374.54 50.38 373.89 40.68 376.88 33.57 367.66 29.69 363.75 38.98 364.35 47.95 360.48 54.47 369.08 59.58"/><polygon points="325.75 50.3 325.61 57.88 335.61 58.06 335.81 47.36 330.41 39.26 329.49 31.61 319.56 32.8 320.77 42.82 325.75 50.3"/><polygon points="280.26 58.81 280.22 66.39 290.22 66.44 290.28 55.74 284.8 47.71 283.78 40.07 273.87 41.38 275.19 51.38 280.26 58.81"/><polygon points="237.89 68.09 239.59 75.56 249.34 73.33 247 63.06 240.2 56.26 237.51 48.95 228.13 52.4 231.57 61.77 237.89 68.09"/><polygon points="197.97 81.79 199.67 89.25 209.42 87.02 207.07 76.76 200.28 69.95 197.59 62.64 188.2 66.09 191.65 75.46 197.97 81.79"/><polygon points="160.13 98.37 163.92 105.18 172.66 100.32 167.68 91.38 159.82 86.16 155.23 79.69 147.07 85.47 152.74 93.47 160.13 98.37"/><polygon points="126.27 118.89 130.06 125.7 138.8 120.84 133.82 111.9 125.95 106.68 121.36 100.21 113.21 105.99 118.87 113.99 126.27 118.89"/><polygon points="105.72 144.89 111.89 149.35 117.75 141.24 109.14 135.02 99.46 134.63 92.64 130.97 87.91 139.78 96.76 144.52 105.72 144.89"/><polygon points="283.96 438.73 283.5 448.4 279.81 455.2 288.59 459.98 293.38 451.16 293.81 442.2 298.3 436.05 290.22 430.16 283.96 438.73"/><polygon points="233.15 426.04 232.56 435.7 228.78 442.46 237.51 447.34 242.4 438.58 242.95 429.64 247.51 423.53 239.49 417.55 233.15 426.04"/><polygon points="200.63 405.63 197.77 414.73 192.66 420.7 200.27 427.2 206.69 419.67 209.37 411.18 215.04 405.94 208.26 398.59 200.63 405.63"/><polygon points="166.66 382.49 163.8 391.59 158.7 397.56 166.3 404.06 172.73 396.53 175.4 388.04 181.07 382.8 174.29 375.45 166.66 382.49"/><polygon points="136.46 360.81 131.31 368.71 124.88 373.38 130.75 381.47 138.67 375.72 143.51 368.29 150.29 364.42 145.32 355.74 136.46 360.81"/><polygon points="107.65 332.28 102.5 340.18 96.07 344.84 101.94 352.94 109.86 347.19 114.71 339.76 121.48 335.88 116.52 327.2 107.65 332.28"/><polygon points="381.3 497.92 376.81 488.85 367.85 493.29 371.57 500.82 372.52 508.73 373.98 517.65 383.85 516.04 382.44 507.44 381.3 497.92"/><polygon points="426.32 483.77 427.24 476.27 417.32 475.05 416.01 485.72 420.65 494.31 420.8 501.99 430.79 501.8 430.61 491.69 426.32 483.77"/><polygon points="321.44 479.94 319.21 489.25 314.47 495.47 322.42 501.54 328.45 493.64 330.52 484.96 335.9 479.47 328.76 472.47 321.44 479.94"/><polygon points="98.56 283.37 98.24 273.37 87.57 273.72 79.73 279.45 72.12 280.75 73.8 290.61 83.73 288.91 90.98 283.61 98.56 283.37"/><polygon points="473.37 467.59 470.78 460.33 461.36 463.69 464.86 473.5 472.17 479.64 475.68 486.66 484.62 482.19 480.19 473.32 473.37 467.59"/><polygon points="502.95 436.97 494.68 442.6 499.64 449.89 511.14 463.96 518.89 457.64 507.78 444.08 502.95 436.97"/><polygon points="535.89 411.61 527.62 406.59 522.43 415.13 529.63 419.51 535.37 425.36 541.85 431.58 548.77 424.36 542.46 418.31 535.89 411.61"/><polygon points="558.73 380.51 554.31 374.04 546.05 379.67 551.77 388.05 559.92 392.71 565.08 398.8 572.71 392.34 566.41 384.9 558.73 380.51"/><polygon points="580.96 341.79 573.54 336.08 567.44 344 574.11 349.14 580.55 356.39 589.09 361.01 593.85 352.21 586.86 348.43 580.96 341.79"/><polygon points="585.87 299.79 576.49 302.51 579.27 312.12 587.76 309.65 594.48 309 601.64 313.49 606.94 305.01 596.9 298.72 585.87 299.79"/></svg>