<svg width="924" height="700" viewBox="0 0 924 700" fill="none" xmlns="http://www.w3.org/2000/svg">
<path d="M905.848 302.649C892.937 259.971 871.045 220.55 841.642 187.036C811.285 152.058 772.608 124.149 732.243 101.805C690.375 78.609 644.547 62.1478 596.748 57.4684C547.796 52.6721 498.743 62.2982 452.665 78.5756C405.15 95.2875 360.224 119.135 317.487 145.674C280.013 168.953 243.842 198.015 221.554 236.804C211.035 254.584 204.337 274.363 201.89 294.878C199.719 314.423 201.753 334.207 207.854 352.901C213.852 371.034 224.344 387.996 238.996 400.48C257.374 416.089 280.631 422.556 303.737 427.67C312.324 429.575 321.697 431.765 330.001 428.807C330.46 429.282 330.983 429.693 331.554 430.027C332.173 462.214 352.388 490.056 378.685 507.486C410.329 528.476 449.841 532.019 486.831 531.401C507.765 531.05 528.683 529.73 549.6 528.627C551.789 564.942 559.19 601.658 575.53 634.313C579.857 643.117 584.844 651.581 590.449 659.631C596.05 667.875 602.544 675.475 609.813 682.293C617.415 689.161 626.721 694.292 637.179 694.292C642.101 694.289 646.931 692.961 651.163 690.448C655.427 687.695 658.794 683.757 660.853 679.117C665.03 670.645 665.949 660.467 666.651 651.159C667.372 643.102 667.517 635.004 667.085 626.926C679.441 630.996 692.298 633.346 705.295 633.912C737.145 635.031 768.378 624.942 793.559 605.401C806.674 595.257 819.522 582.239 826.706 567.114C831.852 556.268 833.539 543.216 828.043 533.106C864.434 515.21 892.615 484.081 906.817 446.087C923.457 400.547 919.364 348.523 905.848 302.649ZM904.177 403.973C901.947 425.113 895.165 445.518 884.298 463.785C873.43 482.053 858.736 497.749 841.225 509.793C833.187 515.355 824.599 520.076 815.596 523.881C810.066 526.22 811.903 533.323 815.813 536.147C819.338 538.687 820.006 542.832 819.639 547.327C819.039 553.142 817.162 558.751 814.142 563.755C807.309 575.454 797.084 585.598 786.475 593.837C769.006 607.532 748.231 616.369 726.251 619.453C704.271 622.537 681.867 619.76 661.305 611.401C648.189 606.086 634.673 598.633 625.518 587.57C617.315 577.66 613.305 563.772 623.847 553.845C635.175 543.166 651.564 543.45 666.083 544.804C676.007 545.74 685.914 546.91 695.838 547.979C705.428 549.066 715.068 550.737 724.759 550.737C733.279 550.837 742.234 548.898 748.399 542.631C751.411 539.768 753.562 536.119 754.61 532.097C755.658 528.075 755.561 523.84 754.33 519.87C753.395 516.812 749.753 514.372 746.612 515.541C743.187 516.828 742.669 520.806 743.604 523.897C745.275 529.496 738.308 534.643 733.881 536.164C725.794 538.921 716.539 537.183 708.252 536.281L679.315 533.172C670.081 531.903 660.782 531.15 651.464 530.916C635.943 530.916 618.35 536.197 610.097 550.503C601.643 565.192 606.338 582.255 616.429 594.856C626.52 607.457 640.37 616.064 654.856 622.347C654.856 622.498 654.856 622.665 654.856 622.815C655.039 624.486 655.14 626.04 655.223 627.645L655.323 630.369C655.323 630.737 655.323 631.121 655.323 631.489V632.09C655.323 636.212 655.206 640.34 654.973 644.474C654.739 648.468 654.405 652.462 653.92 656.423C653.72 658.094 653.486 659.682 653.202 661.303C653.085 661.988 652.968 662.673 652.834 663.341C652.834 663.341 652.617 664.344 652.583 664.561C652.45 665.113 652.316 665.664 652.166 666.233C651.647 668.132 650.994 669.991 650.211 671.798C650.211 671.798 649.61 672.951 649.643 672.934C649.476 673.218 649.309 673.519 649.125 673.803C648.941 674.087 648.54 674.689 648.223 675.123C648.123 675.274 647.321 676.26 647.321 676.293C646.699 676.936 646.023 677.523 645.299 678.048C644.932 678.332 644.547 678.583 644.163 678.833C644.049 678.901 643.932 678.962 643.812 679.017C642.908 679.457 641.976 679.837 641.022 680.154L639.569 680.555H639.435L638.7 680.672C634.895 681.283 630.996 680.844 627.422 679.402C623.86 677.898 620.565 675.827 617.665 673.268C614.251 670.252 611.073 666.978 608.159 663.475C607.992 663.275 607.324 662.506 607.34 662.506L606.472 661.453L604.366 658.813C602.996 657.024 601.643 655.219 600.34 653.398C595.145 646.112 590.494 638.454 586.423 630.486C586.387 630.403 586.342 630.325 586.289 630.252C586.005 629.65 585.704 629.049 585.404 628.43C584.953 627.528 584.518 626.609 584.101 625.706C583.098 623.567 582.129 621.411 581.194 619.239C579.423 615.094 577.852 610.883 576.181 606.638C574.511 602.393 573.324 598.282 572.071 594.037C571.47 591.965 570.885 589.876 570.317 587.804L569.465 584.461L569.348 584.044L568.847 581.921C564.256 562.01 561.56 541.71 560.794 521.29C560.647 519.591 559.888 518.002 558.659 516.819C557.431 515.636 555.815 514.939 554.111 514.856C534.296 515.859 514.482 517.079 494.633 517.731C475.921 518.349 456.992 518.366 438.447 515.625C429.181 514.29 420.04 512.2 411.114 509.375C403.727 507.073 396.609 503.986 389.879 500.167C386.538 498.295 383.33 496.273 380.206 494.083C378.401 492.83 378.251 492.713 376.53 491.359C374.809 490.006 373.473 488.919 371.986 487.633C369.129 485.143 366.389 482.519 363.799 479.761L361.945 477.722L360.942 476.569C360.891 476.519 360.847 476.463 360.809 476.402C359.589 474.948 358.42 473.461 357.283 471.923C354.83 468.632 352.598 465.182 350.601 461.595L349.899 460.275L349.648 459.791V459.707C349.18 458.704 348.696 457.735 348.262 456.732C347.46 454.927 346.725 453.089 346.056 451.234C345.388 449.379 344.736 447.307 344.202 445.301L344.051 444.666C343.968 444.315 343.817 443.613 343.784 443.496C343.567 442.427 343.35 441.357 343.183 440.288C342.848 438.333 342.598 436.361 342.447 434.372C342.364 433.369 342.297 432.366 342.264 431.38C342.264 431.481 342.264 430.561 342.264 430.261V429.943C342.264 429.542 342.264 429.124 342.264 428.723C342.322 427.584 342.133 426.446 341.709 425.387C341.285 424.328 340.636 423.374 339.808 422.59L340.108 421.454C340.554 419.715 341.055 417.994 341.612 416.29C342.698 412.947 343.951 409.605 345.355 406.262C345.973 404.792 346.624 403.355 347.309 401.917C347.694 401.115 348.094 400.246 348.495 399.511L348.579 399.344V399.26C348.846 398.725 349.13 398.207 349.414 397.689C351.085 394.637 352.878 391.656 354.794 388.748C362.399 377.113 372.017 366.926 383.196 358.667C386.07 356.528 389.027 354.489 392.068 352.6C394.767 350.892 397.555 349.33 400.421 347.921C406.745 344.745 413.343 342.149 420.136 340.167C426.572 338.184 433.205 336.912 439.917 336.373C443.212 336.089 446.52 336.005 449.825 336.123C451.495 336.123 453.166 336.29 454.753 336.44C454.854 336.44 456.207 336.624 456.341 336.641C457.293 336.774 458.228 336.925 459.164 337.092C462.884 337.735 466.544 338.685 470.107 339.933L471.16 340.317L471.511 340.451L471.795 340.585C472.647 340.952 473.465 341.32 474.318 341.721C475.952 342.507 477.542 343.383 479.079 344.345C479.731 344.763 480.382 345.214 481.034 345.665C481.034 345.665 482.354 346.701 482.554 346.868C483.841 347.955 485.027 349.141 486.196 350.344L486.631 350.829C486.814 351.063 486.998 351.28 487.165 351.514C487.717 352.216 488.235 352.951 488.719 353.703C489.204 354.456 489.655 355.224 490.106 356.01C490.106 356.01 490.106 356.194 490.256 356.311C490.407 356.428 490.54 356.929 490.674 357.246C490.565 359.912 490.298 362.568 489.872 365.201C489.722 366.054 489.571 366.872 489.387 367.758C489.387 368.009 489.287 368.26 489.22 368.527L489.037 369.296C488.585 370.967 488.084 372.738 487.5 374.426C485.442 380.73 482.372 386.657 478.411 391.974C476.42 394.725 474.272 397.358 471.978 399.862L471.811 400.062L471.628 400.246L470.826 401.065C470.224 401.683 469.606 402.285 468.988 402.887C467.668 404.157 466.315 405.377 464.911 406.58C459.443 411.254 453.554 415.41 447.319 418.997C446.166 419.665 446.55 419.448 445.23 420.167L442.574 421.587C440.686 422.54 438.781 423.476 436.86 424.361C433.001 426.133 429.058 427.704 425.165 429.191C418.282 431.848 422.792 444.015 429.776 441.608C444.62 436.456 458.429 428.703 470.558 418.713C473.976 415.859 477.213 412.795 480.249 409.538C494.6 411.443 508.751 414.552 522.835 417.894C538.189 421.47 553.426 425.464 568.68 429.425C569.463 430.017 570.406 430.36 571.386 430.411C571.786 430.462 572.19 430.462 572.589 430.411C600.357 437.647 628.391 445.335 656.994 448.31C670.973 449.575 685.048 449.283 698.963 447.44C715.624 445.562 732.074 442.132 748.099 437.196C760.729 433.219 772.992 428.005 783.184 419.481C794.09 410.116 803.475 399.11 811.001 386.86C817.78 376.072 823.621 364.722 828.46 352.935C831.363 346.33 833.742 339.507 835.578 332.53C835.848 331.559 836.049 330.571 836.179 329.572C836.352 327.931 835.957 326.281 835.06 324.897C834.163 323.513 832.818 322.479 831.25 321.968C830.519 321.809 829.761 321.812 829.031 321.976C828.3 322.14 827.614 322.462 827.021 322.918C826.428 323.375 825.941 323.956 825.595 324.62C825.249 325.284 825.053 326.016 825.019 326.764V326.914C824.735 327.967 824.4 329.003 824.083 330.039C822.997 333.599 821.761 337.109 820.441 340.568C818.614 345.381 816.626 350.127 814.476 354.806C813.24 357.514 811.948 360.199 810.6 362.862L810.199 363.63L810.032 363.965L808.946 366.003C808.128 367.541 807.276 369.062 806.423 370.566C803.097 376.412 799.45 382.07 795.497 387.512C793.459 390.303 791.32 393.027 789.098 395.65C788.062 396.87 787.026 398.057 785.94 399.243C785.172 400.096 784.103 401.215 782.682 402.586C778.151 407.197 773.106 411.273 767.646 414.735L766.376 415.487L765.006 416.223C763.569 416.975 762.099 417.693 760.629 418.378C757.705 419.715 754.731 420.919 751.724 422.038C737.197 427.28 722.171 431.021 706.882 433.202C692.175 435.705 677.245 436.646 662.34 436.01C661.037 436.01 659.717 435.842 658.414 435.725L656.276 435.525H656.092L654.922 435.425C651.715 435.057 648.512 434.622 645.316 434.121C638.533 433.068 631.783 431.781 625.067 430.378C610.13 427.253 595.311 423.526 580.525 419.749L576.766 418.78C576.914 416.461 577.221 414.154 577.685 411.878C577.785 411.343 578.019 410.457 578.387 409.22C578.704 408.151 579.055 407.081 579.439 406.045C579.824 405.009 580.241 403.939 580.692 402.92C581.143 401.901 581.611 400.931 581.912 400.363C586.082 392.488 592.358 385.926 600.039 381.412C601.308 380.755 602.283 379.643 602.77 378.299C603.256 376.954 603.217 375.476 602.662 374.159C601.794 371.802 598.669 369.028 595.979 370.399C586.272 375.239 578.274 382.93 573.057 392.442C570.38 397.266 568.389 402.441 567.143 407.817C566.507 410.492 566.038 413.205 565.739 415.939C540.996 409.488 516.202 403.004 490.941 399.093C490.24 398.976 489.521 398.892 488.803 398.792C496.72 387.31 501.11 373.764 501.433 359.82C524.339 340.768 548.013 321.8 575.63 310.487C582.341 307.711 589.263 305.476 596.33 303.802C598.151 303.367 598.318 303.334 599.822 303.05C601.326 302.766 603.164 302.465 604.834 302.231C608.025 301.78 611.233 301.479 614.458 301.295C617.682 301.111 620.89 301.078 624.114 301.161C625.618 301.161 627.122 301.295 628.625 301.395C630.747 301.546 630.998 301.562 632.819 301.796C639.12 302.573 645.331 303.961 651.364 305.941C654.423 306.894 657.4 308.09 660.269 309.517C663.413 311.033 666.454 312.752 669.374 314.665L671.295 315.985L671.93 316.419L672.565 316.921C673.952 317.99 675.289 319.11 676.592 320.263C677.895 321.416 679.165 322.653 680.384 323.923C681.002 324.558 681.587 325.21 682.172 325.861L682.69 326.446C682.69 326.446 683.224 327.115 683.375 327.299C685.346 329.739 688.671 331.477 691.528 329.237C692.747 328.089 693.506 326.536 693.663 324.869C693.819 323.202 693.363 321.535 692.38 320.179C678.814 303.334 659.517 293.44 638.783 289.781C638.148 288.333 637.125 287.089 635.826 286.187C630.975 282.867 626.312 279.28 621.859 275.442C619.62 273.517 617.479 271.481 615.443 269.342C613.569 267.449 611.89 265.371 610.431 263.142C609.646 261.955 608.927 260.735 608.226 259.499C608.232 259.46 608.232 259.42 608.226 259.382C608.092 259.114 607.975 258.863 607.858 258.596C607.507 257.861 607.207 257.109 606.906 256.357C606.605 255.605 606.421 255.02 606.204 254.335C606.121 254.117 605.87 253.232 605.803 253.014C605.411 251.309 605.143 249.578 605.001 247.834C604.45 241.232 605.903 233.712 607.491 227.211C609.642 218.947 612.372 210.844 615.661 202.962C616.194 201.372 616.166 199.648 615.582 198.075C614.999 196.503 613.894 195.179 612.453 194.322C609.395 192.651 606.488 194.155 605.102 197.046C601.735 204.336 599.088 211.937 597.199 219.741C594.773 228.263 593.564 237.085 593.607 245.945C594.058 260.718 602.445 273.319 613.104 282.962C615.059 284.734 617.114 286.405 619.202 287.976C588.812 287.976 560.51 300.626 535.583 317.155C522.291 326.185 509.492 335.919 497.24 346.317C490.34 336.29 479.647 329.605 467.685 326.146C453.066 321.968 437.745 322.686 423.043 325.978C393.354 332.663 366.64 351.247 348.846 375.763C340.342 387.498 333.984 400.647 330.067 414.602C329.592 414.76 329.142 414.985 328.731 415.27C324.755 418.044 319.709 417.727 315.131 416.941C309.518 416.056 303.954 414.585 298.424 413.248C286.729 410.424 275.034 407.248 264.241 402.084C247.793 394.25 234.272 381.37 225.647 365.318C208.456 333.9 209.258 294.059 223.041 261.704C239.748 222.582 272.06 192.551 306.427 168.803C325.165 156.07 344.537 144.295 364.468 133.524L366.623 132.354C360.899 141.166 356.25 150.631 352.773 160.547C345.321 181.788 343.617 205.101 344.82 227.395C345.268 238.147 346.723 248.834 349.164 259.315C335.923 262.133 323.635 268.327 313.494 277.297C312.367 278.403 311.669 279.873 311.522 281.445C311.375 283.017 311.79 284.591 312.692 285.887C314.363 288.26 317.955 289.897 320.427 287.725C329.669 279.68 340.837 274.171 352.843 271.734C364.849 269.297 377.282 270.016 388.927 273.821C392.118 274.873 394.958 271.899 395.276 268.941C395.447 267.273 395.044 265.596 394.133 264.189C393.221 262.781 391.856 261.728 390.264 261.203C380.615 258.085 370.45 256.887 360.341 257.677C358.467 249.16 357.111 240.538 356.281 231.857C355.387 221.37 355.387 210.826 356.281 200.338C356.978 190.151 358.759 180.067 361.594 170.257C364.399 161.086 368.256 152.27 373.088 143.986C375.682 139.507 378.55 135.193 381.676 131.068C384.348 127.547 387.239 124.198 390.33 121.04C390.851 120.523 391.275 119.918 391.583 119.252C404.337 112.902 417.279 106.975 430.411 101.471C454.861 91.1041 480.168 82.8898 506.045 76.9211C502.519 80.1298 499.195 83.6058 496.104 86.9482C483.505 100.624 474.297 117.071 469.222 134.962C467.551 140.794 466.265 146.743 465.212 152.726C464.048 158.559 463.305 164.468 462.99 170.407C462.962 171.149 463.035 171.891 463.207 172.613C455.547 171.91 447.831 172.112 440.218 173.215C439.479 173.315 438.769 173.565 438.129 173.949C437.49 174.333 436.935 174.843 436.499 175.448C436.063 176.053 435.755 176.74 435.593 177.468C435.431 178.196 435.419 178.95 435.557 179.683C436.008 182.473 438.481 186.117 441.805 185.682C453.783 184.029 465.971 184.773 477.659 187.871C483.305 189.318 488.794 191.316 494.049 193.837C499.583 196.639 504.9 199.851 509.954 203.447C510.546 203.797 511.204 204.022 511.886 204.107C512.569 204.192 513.262 204.135 513.921 203.941C514.581 203.746 515.194 203.418 515.721 202.977C516.249 202.535 516.68 201.99 516.988 201.375C517.634 199.985 517.821 198.426 517.52 196.923C517.22 195.42 516.448 194.052 515.317 193.019C504.71 184.614 492.411 178.605 479.263 175.404C477.291 174.92 475.32 174.485 473.315 174.101C473.426 173.791 473.51 173.472 473.566 173.148C475.32 163.706 476.189 153.896 478.494 144.738C480.723 135.275 484.142 126.134 488.669 117.531C496.479 103.602 506.994 91.3747 519.594 81.567C522.744 79.0096 526.096 76.7125 529.618 74.6984C531.379 73.7481 533.198 72.9108 535.065 72.1916C535.449 72.0412 535.867 71.9242 536.251 71.7905C546.964 70.4017 557.746 69.615 568.546 69.4342C607.908 68.9328 646.886 77.6063 683.341 92.2459C664.696 94.385 646.586 103.476 631.95 114.774C620.054 123.965 609.228 135.246 602.211 148.632C601.489 149.874 601.204 151.323 601.401 152.746C601.598 154.17 602.265 155.487 603.297 156.486C605.152 158.158 608.71 158.626 610.164 156.102C616.645 145.306 625.088 135.817 635.058 128.126C645.174 119.764 656.636 113.18 668.956 108.657C680.518 104.512 692.447 102.774 704.443 105.532C707.553 106.242 710.612 107.164 713.598 108.289C715.018 108.824 715.503 109.008 717.14 109.727C718.777 110.445 720.381 111.214 721.985 112.016C728.125 115.157 734.087 118.633 739.845 122.428C752.275 130.433 764.405 139.758 778.055 145.624C789.924 154.152 801.251 163.412 811.97 173.349C823.508 184.107 834.199 195.739 843.948 208.143C839.927 205.803 835.739 203.765 831.417 202.043C812.856 194.69 791.938 194.874 772.942 200.623C762.517 203.804 752.749 208.836 744.106 215.479C739.302 208.831 733.211 203.215 726.195 198.968C720.956 195.795 715.216 193.535 709.221 192.283C701.836 190.796 701.485 202.645 707.968 204.115C713.698 205.355 719.115 207.749 723.89 211.151L724.675 211.703L724.792 211.803C725.343 212.221 725.878 212.655 726.463 213.09C727.699 214.092 728.885 215.145 730.021 216.231C731.157 217.318 731.976 218.203 732.912 219.24L733.463 219.875L733.764 220.242C734.248 220.877 734.75 221.496 735.217 222.131C736.909 224.429 738.423 226.854 739.745 229.384L740.43 230.804C740.747 231.54 741.065 232.258 741.366 232.993C741.867 234.28 742.335 235.584 742.752 236.904C742.936 237.506 743.103 238.107 743.27 238.709C743.27 238.709 743.621 240.146 743.654 240.38C743.922 241.734 744.156 243.104 744.306 244.475C744.456 245.845 744.59 247.366 744.623 248.82C744.623 249.003 744.623 250.324 744.623 250.491C744.562 251.64 744.601 252.792 744.74 253.933C744.895 255.264 745.429 256.521 746.28 257.556C747.13 258.59 748.26 259.357 749.535 259.766C750.695 259.987 751.896 259.792 752.927 259.214C753.957 258.636 754.75 257.713 755.166 256.607C755.959 253.463 756.163 250.2 755.767 246.981C755.603 244.423 755.246 241.881 754.698 239.377C753.655 234.616 752.068 229.99 749.97 225.59C764.664 215.087 782.201 209.3 800.258 208.995C809.168 208.818 818.039 210.227 826.455 213.156C834.324 216.069 841.729 220.105 848.442 225.139C852.463 228.236 856.254 231.621 859.786 235.266C860.538 236.052 861.307 236.937 862.042 237.673C862.476 238.157 862.927 238.642 863.362 239.143L864.113 240.029C865.784 241.984 867.254 244.04 868.875 246.029C869.165 246.378 869.478 246.707 869.811 247.015C874.999 256.242 879.673 265.749 883.811 275.492C900.836 315.584 909.474 360.488 904.211 403.973H904.177ZM825.119 326.964C825.099 327.078 825.071 327.189 825.035 327.299L825.119 326.964Z" fill="#C0E6FF"/>
<path d="M675.923 14.569L691.862 19.5491L697.225 2.36932L692.079 -13.1393L694.134 -25.7902L677.644 -28.4808L674.938 -11.7689L679.682 2.53644L675.923 14.569Z" fill="#C0E6FF"/>
<path d="M760.997 32.3338L764.89 16.8251L772.91 6.48048L759.711 -3.76392L749.536 9.35492L745.911 23.8107L736.855 32.9187L748.701 44.7006L760.997 32.3338Z" fill="#C0E6FF"/>
<path d="M819.59 58.3876L826.991 47.0903L834.76 34.1888L820.442 25.5654L812.924 38.0659L804.253 51.3352L799.625 67.2115L815.664 71.8741L819.59 58.3876Z" fill="#C0E6FF"/>
<path d="M876.092 101.036L883.694 87.2992L893.785 78.5923L882.875 65.9414L870.528 76.5869L863.361 89.5219L852.602 96.9921L862.141 110.713L876.092 101.036Z" fill="#C0E6FF"/>
<path d="M927.033 154.013L934.635 140.276L944.726 131.586L933.816 118.918L921.47 129.564L914.302 142.515L903.543 149.985L913.083 163.706L927.033 154.013Z" fill="#C0E6FF"/>
<path d="M140.909 320.748L153.239 323.405L156.747 307.061L139.155 303.284L124.185 309.818L111.387 308.932L110.234 325.611L127.109 326.781L140.909 320.748Z" fill="#C0E6FF"/>
<path d="M137.768 266.417L154.459 263.66L151.752 247.182L137.902 249.455L124.803 247.098L109.834 245.059L107.578 261.621L122.013 263.576L137.768 266.417Z" fill="#C0E6FF"/>
<path d="M147.708 207.976L159.236 213.106L166.036 197.848L149.629 190.529L133.64 193.754L121.294 190.211L116.699 206.288L132.955 210.934L147.708 207.976Z" fill="#C0E6FF"/>
<path d="M174.475 426.968L186.27 421.303L179.019 406.246L164.083 413.432L154.359 424.729L142.18 428.857L147.543 444.683L164.049 439.084L174.475 426.968Z" fill="#C0E6FF"/>
<path d="M616.63 8.5694L625.752 -6.80554L624.666 -23.0161L629.662 -34.8982L614.257 -41.3824L607.725 -25.8571L608.727 -10.8665L602.262 0.0296249L616.63 8.5694Z" fill="#C0E6FF"/>
<path d="M544.236 -6.93918L544.002 5.72844L560.71 6.02925L561.044 -11.8525L552.022 -25.3891L550.485 -38.1737L533.895 -36.185L535.916 -19.4397L544.236 -6.93918Z" fill="#C0E6FF"/>
<path d="M468.235 7.28269L468.168 19.9503L484.875 20.0339L484.975 2.15214L475.82 -11.2675L474.115 -24.0354L457.559 -21.8461L459.764 -5.13425L468.235 7.28269Z" fill="#C0E6FF"/>
<path d="M397.447 22.7912L400.287 35.275L416.577 31.5483L412.667 14.3852L401.306 3.02108L396.812 -9.19531L381.141 -3.42971L386.888 12.2293L397.447 22.7912Z" fill="#C0E6FF"/>
<path d="M330.753 45.6866L333.593 58.1537L349.882 54.4269L345.956 37.2805L334.612 25.8997L330.118 13.6833L314.43 19.4489L320.194 35.108L330.753 45.6866Z" fill="#C0E6FF"/>
<path d="M267.534 73.3949L273.866 84.7757L288.469 76.6538L280.148 61.7133L267.017 52.9897L259.348 42.1771L245.715 51.8366L255.188 65.2061L267.534 73.3949Z" fill="#C0E6FF"/>
<path d="M210.96 107.688L217.292 119.068L231.894 110.946L223.574 96.0061L210.426 87.2824L202.757 76.4698L189.141 86.1293L198.597 99.4988L210.96 107.688Z" fill="#C0E6FF"/>
<path d="M176.631 151.139L186.939 158.592L196.729 145.039L182.344 134.644L166.172 133.992L154.778 127.876L146.875 142.599L161.661 150.52L176.631 151.139Z" fill="#C0E6FF"/>
<path d="M474.418 642.201L473.649 658.361L467.484 669.726L482.153 677.714L490.156 662.974L490.874 648L498.376 637.722L484.877 627.879L474.418 642.201Z" fill="#C0E6FF"/>
<path d="M389.528 620.994L388.542 637.137L382.227 648.435L396.812 656.59L404.982 641.95L405.901 627.01L413.519 616.799L400.12 606.805L389.528 620.994Z" fill="#C0E6FF"/>
<path d="M335.198 586.885L330.42 602.092L321.883 612.069L334.597 622.932L345.323 610.348L349.801 596.16L359.274 587.403L347.946 575.119L335.198 586.885Z" fill="#C0E6FF"/>
<path d="M278.443 548.213L273.665 563.421L265.145 573.398L277.842 584.261L288.585 571.677L293.046 557.489L302.519 548.731L291.191 536.448L278.443 548.213Z" fill="#C0E6FF"/>
<path d="M227.988 511.982L219.383 525.184L208.641 532.989L218.448 546.509L231.68 536.899L239.766 524.482L251.094 518.015L242.79 503.509L227.988 511.982Z" fill="#C0E6FF"/>
<path d="M179.855 464.303L171.251 477.505L160.508 485.293L170.315 498.83L183.547 489.22L191.65 476.803L202.961 470.319L194.674 455.813L179.855 464.303Z" fill="#C0E6FF"/>
<path d="M537.036 711.071L533.31 726.629L525.391 737.024L538.673 747.168L548.747 733.966L552.206 719.46L561.194 710.285L549.265 698.587L537.036 711.071Z" fill="#C0E6FF"/>
<path d="M164.666 382.565L164.131 365.853L146.305 366.438L133.206 376.014L120.492 378.186L123.299 394.664L139.889 391.823L152.002 382.966L164.666 382.565Z" fill="#C0E6FF"/>
<path d="M790.87 690.431L786.543 678.299L770.805 683.914L776.652 700.308L788.865 710.569L794.729 722.301L809.666 714.831L802.264 700.007L790.87 690.431Z" fill="#C0E6FF"/>
<path d="M840.29 639.26L826.473 648.669L834.759 660.852L853.973 684.365L866.921 673.803L848.359 651.142L840.29 639.26Z" fill="#C0E6FF"/>
<path d="M895.324 596.878L881.507 588.489L872.836 602.761L884.865 610.081L894.455 619.857L905.281 630.252L916.843 618.186L906.301 608.075L895.324 596.878Z" fill="#C0E6FF"/>
<path d="M933.482 544.904L926.097 534.092L912.297 543.501L921.853 557.505L935.47 565.293L944.091 575.47L956.838 564.675L946.313 552.241L933.482 544.904Z" fill="#C0E6FF"/>
</svg>
