<svg id="Layer_1" data-name="Layer 1" xmlns="http://www.w3.org/2000/svg" viewBox="0 0 682.34 534.35"><defs><style>.cls-1{fill:#e7bd40;}.cls-2{fill:none;stroke:#000;stroke-linecap:round;stroke-linejoin:round;stroke-width:0;}</style></defs><polygon class="cls-1" points="441.09 174.98 441.09 174.98 441.08 174.98 441.08 174.98 441.09 174.98"/><path class="cls-1" d="M139.33,291.27c-.06.17-.11.33-.17.49C139.22,291.6,139.27,291.44,139.33,291.27Z"/><path class="cls-1" d="M138.54,293.66l-.17.62Z"/><path class="cls-1" d="M137.93,296.2l-.12.57Z"/><path class="cls-1" d="M388.51,182.24q-1.41.45-2.82.84Q387.1,182.69,388.51,182.24Z"/><path class="cls-1" d="M381.68,184.07c-.56.12-1.13.26-1.69.37C380.55,184.33,381.12,184.19,381.68,184.07Z"/><path class="cls-1" d="M378.73,184.68l-1.62.31Z"/><path class="cls-1" d="M375.81,185.2l-1.58.25Z"/><path class="cls-1" d="M384.73,183.32c-.63.17-1.26.34-1.88.49C383.47,183.66,384.1,183.49,384.73,183.32Z"/><path class="cls-1" d="M205.36,68.33l.08.08Z"/><path class="cls-1" d="M348.08,186.82Z"/><path class="cls-1" d="M372.89,185.63l-1.56.2Z"/><path class="cls-1" d="M352.33,186.84h0Z"/><path class="cls-1" d="M367,186.26l-1.52.13Z"/><path class="cls-1" d="M369.94,186l-1.52.17Z"/><path class="cls-1" d="M364.09,186.48l-1.51.1Z"/><path class="cls-1" d="M361.16,186.64l-1.52.07Z"/><path class="cls-1" d="M358.23,186.75l-1.52.05Z"/><path class="cls-1" d="M355.29,186.82l-1.52,0Z"/><polygon class="cls-1" points="450.22 160.23 450.22 160.24 450.22 160.23 450.22 160.23"/><path d="M440.59,150c.07.13.13.27.2.4s.25.48.36.72.15.34.22.51.18.42.25.63.14.38.2.57.13.39.18.58.12.42.17.63.08.35.11.53.09.45.13.68l.06.47c0,.24.06.49.08.73s0,.25,0,.38,0,.54,0,.81h0a10.56,10.56,0,0,1-.05,1.13,13.29,13.29,0,0,1-2.65,6.54h0c-.29.39-.62.78-.95,1.16l-.25.26q-.32.34-.66.69c.7.07,1.4.15,2.11.25l.45.07c1.12.17,2.24.36,3.36.59l1.18.25,1.65.39h0c.36-.55.7-1.1,1-1.64.08-.14.16-.28.23-.42.16-.3.3-.59.44-.87l.05-.11c.13-.28.25-.55.36-.82l0,0c.24-.58.44-1.15.61-1.7l0-.08c.08-.25.15-.49.21-.73l0-.07a21.49,21.49,0,0,0,.48-2.26h0c0-.17,0-.33.07-.48l0-.28a22.77,22.77,0,0,0-4.53-16.05c-1.75,2-3.62,4-5.59,5.93Z"/><path d="M452.07,9.41a27.07,27.07,0,0,1,4.36,25.1A57.29,57.29,0,0,1,453.66,41c-2.17,4.57-4,8.51-2.68,12A16.21,16.21,0,0,0,454,57.45l.66.77c13.14,16.35,15.08,41.1,5,63.11A90,90,0,0,1,445.46,143l0,0c.11.13.21.28.31.42a91.37,91.37,0,0,0,14.51-22c10-21.75,8.07-47.22-4.86-63.44a10.21,10.21,0,0,0-1-1.25l-.29-.35a14.31,14.31,0,0,1-2.46-3.68c-1.2-3.13.21-6.48,2.69-11.63l.06-.14c.26-.6.52-1.2.79-1.79a49,49,0,0,0,1.9-4.67,27.91,27.91,0,0,0-4.48-25.6A50,50,0,0,0,443.56.61l-.43-.34h-1.2l1.23,1A49,49,0,0,1,452.07,9.41Z"/><path d="M211.62,3.39a86.29,86.29,0,0,0,.93,9.21c.08.76.17,1.52.26,2.28a63.45,63.45,0,0,1,.61,8.65c-.09,8.43-3.33,17.08-6.17,24.7A139.08,139.08,0,0,0,202.12,64c-.07.29-.13.59-.2.88l.43.41c.09-.39.17-.79.27-1.19a143.26,143.26,0,0,1,5.06-15.5c3.15-8.5,6.12-16.53,6.24-25a79.22,79.22,0,0,0-.89-11c-.38-2.95-.77-6-.91-9.1-.05-1.05-.06-2.1,0-3.16h-.5C211.56,1.31,211.57,2.35,211.62,3.39Z"/><path d="M429.68,158.76l-1.29.38c-3.78,3-7.84,6-12.22,8.94-1.7,1.15-3.33,2.2-4.93,3.21.83-.36,1.69-.69,2.55-1,.95-.61,1.9-1.24,2.89-1.91C421.36,165.21,425.67,162,429.68,158.76Z"/><path d="M399.25,178.54h0c.74-.58,1.5-1.13,2.26-1.68h0q-2.61,1.33-5.14,2.43l0,.56C397.31,179.44,398.27,179,399.25,178.54Z"/><path d="M439.93,148.91c.1.15.18.29.27.44,2-2,3.84-3.93,5.59-5.93-.1-.14-.2-.29-.31-.42l0,0c-1.75,2-3.6,4-5.57,5.92Z"/><polygon points="388.81 174.76 388.83 174.35 388.81 174.76 388.81 174.76"/><path d="M438.75,6.82l.42.34a44.72,44.72,0,0,1,7.29,6.67A19.88,19.88,0,0,1,449.6,32a43.92,43.92,0,0,1-1.84,4.39l-.62,1.35-.09.19c-2.43,5.3-5.19,11.3-2.8,17.72a22.56,22.56,0,0,0,4,6.27l.34.42a9.43,9.43,0,0,0,.61.77c11.07,13.85,12.63,36,3.86,55.13-7.22,15.7-20.59,30-40.89,43.67A124.31,124.31,0,0,1,396.72,171l0,.4a124.24,124.24,0,0,0,15.56-9.17c20.41-13.72,33.85-28.07,41.08-43.85,8.85-19.33,7.22-41.73-4-55.75l-.57-.67a22.05,22.05,0,0,1-4.28-6.5c-2.44-6.24.4-12.21,2.9-17.48a50.1,50.1,0,0,0,2.45-5.74,19.93,19.93,0,0,0-3.2-18.52,42.78,42.78,0,0,0-7.71-7,59,59,0,0,1-7.47-6.5h-.16A63.25,63.25,0,0,0,438.75,6.82Z"/><path d="M219.12,3.11c.12,2.81.47,5.59.85,8.53a83.87,83.87,0,0,1,.95,12c-.14,9.69-3.46,18.67-6.67,27.35a136.94,136.94,0,0,0-4.83,14.73c-.48,2-.85,4-1.15,6,.17.2.34.39.5.6A65.23,65.23,0,0,1,210,65.68a124.5,124.5,0,0,1,4.57-14.15l.2-.54c3.2-8.67,6.51-17.64,6.62-27.33a77.58,77.58,0,0,0-.93-12.16A84.61,84.61,0,0,1,219.62,3c0-.92,0-1.84,0-2.76h-.51C219.06,1.22,219.07,2.16,219.12,3.11Z"/><polygon points="388.81 174.76 388.81 174.76 388.51 182.25 388.81 174.76"/><path d="M428.39,159.14c-1,.31-2,.65-3,1l14.46-11.23-29,22.5.32-.15c1.6-1,3.23-2.06,4.93-3.21C420.55,165.14,424.61,162.16,428.39,159.14Z"/><path d="M212.12,3.43c.14,3.09.53,6.15.91,9.1a79.22,79.22,0,0,1,.89,11c-.12,8.49-3.09,16.52-6.24,25a143.26,143.26,0,0,0-5.06,15.5c-.1.4-.18.8-.27,1.19q1.56,1.5,3,3.09l.08.08c1,1.06,1.92,2.15,2.83,3.28.3-2,.67-4,1.15-6A136.94,136.94,0,0,1,214.25,51c3.21-8.68,6.53-17.66,6.67-27.35a83.87,83.87,0,0,0-.95-12c-.38-2.94-.73-5.72-.85-8.53-.05-.95-.06-1.89,0-2.84h-7C212.06,1.33,212.07,2.38,212.12,3.43Z"/><path d="M438.88,6.77a42.78,42.78,0,0,1,7.71,7,19.93,19.93,0,0,1,3.2,18.52A50.1,50.1,0,0,1,447.34,38c-2.5,5.27-5.34,11.24-2.9,17.48a22.05,22.05,0,0,0,4.28,6.5l.57.67c11.27,14,12.9,36.42,4,55.75-7.23,15.78-20.67,30.13-41.08,43.85a124.24,124.24,0,0,1-15.56,9.17l-.33,7.85q2.53-1.09,5.14-2.43h0c1.44-1,2.93-2,4.46-2.89h0L445.46,143a90,90,0,0,0,14.24-21.69c10.08-22,8.14-46.76-5-63.11l-.66-.77A16.21,16.21,0,0,1,451,53c-1.36-3.47.51-7.41,2.68-12a57.29,57.29,0,0,0,2.77-6.51,27.07,27.07,0,0,0-4.36-25.1,49,49,0,0,0-8.91-8.18l-1.23-1H431.41A59,59,0,0,0,438.88,6.77Z"/><path d="M408.53,172.56c.78-.4,1.58-.76,2.39-1.12h0l29-22.5c2-1.95,3.82-3.93,5.57-5.92L406,174h0C406.82,173.47,407.66,173,408.53,172.56Z"/><path d="M392.2,184.58h0c1.34-1.24,2.7-2.46,4.09-3.64l.05-1.08c-1.41.61-2.81,1.19-4.22,1.71-1.2.43-2.42.84-3.64,1.21l-.23,5.56C389.56,187.07,390.87,185.81,392.2,184.58Z"/><path d="M369.49,204.8a68.31,68.31,0,0,0,7.47-5.73l.13-.11c.78-.69,1.56-1.39,2.34-2.11h0l-30.31.63a23.07,23.07,0,0,1-.5,2.29l-.2.5-1.1,2.6c.27.79.51,1.58.75,2.37l21.42-.43Z"/><path d="M396.72,171l1.3-31-2.5-1.1c-1.38-.58-2.67-1.21-3.91-1.88a35.46,35.46,0,0,1-6.82,5.14l.95.59a48.28,48.28,0,0,0,4.28,2.35l-1.19,29.18.5-.17A75.29,75.29,0,0,0,396.72,171Z"/><path d="M226.82,111.37c1.16,12.32,3.67,23,7.57,32.12.64.1,1.28.23,1.93.38a24.6,24.6,0,0,1,5.87-2.15l-.25-.55-.36-.82c0-.09-.09-.18-.13-.28h0c-.13-.31-.24-.63-.37-.94-.32-.8-.65-1.6-1-2.43l0-.07h0c-.43-1.17-.83-2.38-1.21-3.6h0c-.12-.4-.24-.8-.35-1.2v0q-.37-1.26-.72-2.55h0c-.13-.49-.25-1-.37-1.48-.16-.65-.31-1.32-.46-2l-.12-.51h0c-.12-.53-.23-1.06-.34-1.6s-.19-1-.29-1.54c-.06-.35-.13-.69-.2-1h0c-.06-.36-.12-.71-.19-1.07l-.09-.54c-.06-.35-.1-.71-.16-1.06-.09-.62-.19-1.24-.27-1.87-.07-.47-.14-.94-.2-1.42-.19-1.47-.36-3-.5-4.51a626,626,0,0,1-2.7-77.2,161.06,161.06,0,0,1,3.9-33.1h-8a175.16,175.16,0,0,0-3.7,32.9A642.18,642.18,0,0,0,226.82,111.37Z"/><path d="M329.92,4.53c0,.45,0,.89,0,1.32v.32c0,.37,0,.73,0,1.09a2.71,2.71,0,0,1,0,.29c0,.38,0,.76.05,1.13a1.15,1.15,0,0,0,0,.19,32.62,32.62,0,0,0,1,6.69h0c.09.34.19.68.3,1v0c.1.34.22.69.34,1v0a27.47,27.47,0,0,0,2.14,4.58c.37.65.78,1.31,1.23,2l.71,1,.15.2c.23.32.47.63.71,1l.24.31c.23.3.48.61.73.92l.31.38.76.89.39.45c.25.29.52.58.79.88l.46.51.82.86.55.57c.28.28.56.57.86.86s.41.41.62.62l.9.87.7.66.94.87.79.73,1,.87.9.79,1,.87,1,.85,1,.88c.36.3.75.61,1.12.93l1,.86,1.3,1,1,.81L357.45,46l.85.66c.84.66,1.7,1.32,2.59,2l0,0c1,.8,2,1.57,2.87,2.3.72.61,1.38,1.19,2,1.75l1.11,1.05c8.55,8.39,5.73,13,.92,20.8-.4.66-.82,1.33-1.23,2l.53,0a34.77,34.77,0,0,1,8,.94c6.7-11.18,9.43-20.54-9.51-35-27.8-21.3-27.9-27.6-27.9-38,0-1.32-.05-2.7-.12-4.2h-7.73c0,1.45.05,2.87.05,4.2Z"/><path d="M365.79,52.72c-.62-.56-1.28-1.14-2-1.75C364.51,51.58,365.17,52.16,365.79,52.72Z"/><path d="M370.92,110.87l-.1-.3-.1-.3c-4.86-11.54-3.09-19.1.24-25.62a27.12,27.12,0,0,0-3.84-.28,26.56,26.56,0,0,0-4.75.43c-.18.44-.35.9-.51,1.36a32.45,32.45,0,0,0-1.92,10.92,35.48,35.48,0,0,0,.79,7.48,47.51,47.51,0,0,0,2.69,8.51A51.26,51.26,0,0,0,378,136.93a27.14,27.14,0,0,0,7-4.37A43.42,43.42,0,0,1,370.92,110.87Z"/><path d="M388.51,182.24l0,.53c1.22-.37,2.44-.78,3.64-1.21,1.41-.52,2.81-1.1,4.22-1.71l0-.56c-1.56.68-3.1,1.31-4.65,1.87Q390.11,181.75,388.51,182.24Z"/><path d="M389.33,174.58a77.49,77.49,0,0,0,7.37-3.14l0-.4a75.29,75.29,0,0,1-7.39,3.14l-.5.17,0,.41C389,174.7,389.16,174.65,389.33,174.58Z"/><path d="M388.81,174.76l-.3,7.48q1.61-.5,3.21-1.08c1.55-.56,3.09-1.19,4.65-1.87l.33-7.85a77.49,77.49,0,0,1-7.37,3.14C389.16,174.65,389,174.7,388.81,174.76Z"/><path d="M361.86,86.16a32.45,32.45,0,0,0-1.92,10.92A32.45,32.45,0,0,1,361.86,86.16Z"/><path d="M388.49,182.77l0-.53q-1.41.45-2.82.84l-1,.24c-.63.17-1.26.34-1.88.49l-1.17.26c-.56.12-1.13.26-1.69.37l-1.26.24-1.62.31-1.3.21-1.58.25-1.34.18-1.56.2c-.46.06-.93.1-1.39.15l-1.52.17-1.4.11-1.52.13c-.47,0-.94.06-1.41.09l-1.51.1-1.42.06-1.52.07-1.41,0-1.52.05-1.42,0-1.52,0h-5.69c.06.16.12.31.19.47C361.43,187.46,375.32,186.83,388.49,182.77Z"/><path d="M388.81,174.76l0-.41c-14.93,5.25-31.69,5.33-47.1,4.9l.64.46C358.68,180.12,374.18,179.94,388.81,174.76Z"/><path d="M350.84,186.84h2.93l1.52,0,1.42,0,1.52-.05,1.41,0,1.52-.07,1.42-.06,1.51-.1c.47,0,.94,0,1.41-.09l1.52-.13,1.4-.11,1.52-.17c.46,0,.93-.09,1.39-.15l1.56-.2,1.34-.18,1.58-.25,1.3-.21,1.62-.31,1.26-.24c.56-.11,1.13-.25,1.69-.37l1.17-.26c.62-.15,1.25-.32,1.88-.49l1-.24q1.41-.39,2.82-.84l.3-7.48c-14.63,5.18-30.13,5.36-46.44,5a17.9,17.9,0,0,1,5.71,7.11h2.76Z"/><path d="M235.84,120c.07.36.13.71.19,1.07h0C236,120.68,235.91,120.33,235.84,120Z"/><path d="M235.75,119.43l.09.54-.09-.53Z"/><path d="M235.12,115.08h0c.06.48.13,1,.2,1.42h0C235.25,116,235.18,115.56,235.12,115.08Z"/><path d="M236.52,123.64h0c.11.54.22,1.07.34,1.6h0C236.74,124.71,236.63,124.18,236.52,123.64Z"/><path d="M240.1,136.63h0l0,.07,0,0A.54.54,0,0,1,240.1,136.63Z"/><path d="M247.91,151.86a55,55,0,0,0,5.25,6.46A55.83,55.83,0,0,1,247.91,151.86Z"/><path d="M246.05,149h0c.6,1,1.21,1.92,1.86,2.84C247.26,150.94,246.65,150,246.05,149Z"/><path d="M241.45,140.07c0,.1.09.19.13.28,0-.09-.09-.18-.13-.28Z"/><path d="M241.58,140.35l.36.82v0C241.81,140.89,241.69,140.62,241.58,140.35Z"/><path d="M238.53,131.78v0c.11.4.23.8.35,1.2h0C238.76,132.61,238.65,132.19,238.53,131.78Z"/><path d="M237.44,127.72v0c.12.49.24,1,.37,1.48h0C237.68,128.73,237.56,128.22,237.44,127.72Z"/><path d="M237,125.76c.15.66.3,1.33.46,2v0C237.28,127.08,237.13,126.42,237,125.76Z"/><path d="M236.86,125.24h0l.12.51-.12-.51Z"/><path d="M236.23,122.1c.1.52.19,1,.29,1.54h0C236.42,123.13,236.33,122.62,236.23,122.1Z"/><path d="M236,121h0c.07.36.14.7.2,1-.07-.35-.14-.7-.2-1.06Z"/><path d="M240.13,136.7c.3.83.63,1.63,1,2.43-.32-.79-.64-1.57-.93-2.39Z"/><path d="M241.08,139.13c.13.31.24.63.37.94h0C241.32,139.77,241.21,139.44,241.08,139.13Z"/><path d="M241.93,141.15v0l.25.55h0C242.11,141.53,242,141.35,241.93,141.15Z"/><path d="M235.32,116.5c.08.63.18,1.25.27,1.87l-.27-1.86Z"/><path d="M235.59,118.37c.06.35.1.71.16,1.06h0C235.7,119.09,235.65,118.73,235.59,118.37Z"/><path d="M234.62,110.57c.14,1.54.31,3,.5,4.51h0C234.93,113.61,234.76,112.11,234.62,110.57Z"/><path d="M238.89,133h0c.38,1.22.78,2.43,1.21,3.6h0C239.67,135.45,239.27,134.24,238.89,133Z"/><path d="M237.81,129.22h0q.34,1.29.72,2.55v0C238.28,130.94,238,130.09,237.81,129.22Z"/><path d="M331,15.56a32.62,32.62,0,0,1-1-6.69A32.53,32.53,0,0,0,331,15.56Z"/><path d="M321.62,40.7A6.38,6.38,0,0,0,326.22,52a6.83,6.83,0,0,0,6.6-6.8,6.22,6.22,0,0,0-2-4.38A16.76,16.76,0,0,0,321.62,40.7Z"/><path d="M321.62,40.7a7.19,7.19,0,0,1,4.3-1.73,6.94,6.94,0,0,1,4.91,1.82,26.26,26.26,0,0,1,9.79,5.58l5-6c-21.5-18.5-38.4.2-38.6.4l5.9,5.2A20.2,20.2,0,0,1,321.62,40.7Z"/><path d="M321.62,40.7a16.76,16.76,0,0,1,9.21.09A6.94,6.94,0,0,0,325.92,39,7.19,7.19,0,0,0,321.62,40.7Z"/><path d="M252.82,40a6.38,6.38,0,0,0,4.6,11.27,6.83,6.83,0,0,0,6.6-6.8,6.22,6.22,0,0,0-2-4.38A16.76,16.76,0,0,0,252.82,40Z"/><path d="M252.82,40a7.19,7.19,0,0,1,4.3-1.73A6.94,6.94,0,0,1,262,40.09a26.26,26.26,0,0,1,9.79,5.58l5-6c-21.5-18.5-38.4.2-38.6.4l5.9,5.2A20.2,20.2,0,0,1,252.82,40Z"/><path d="M252.82,40a16.76,16.76,0,0,1,9.21.09,6.94,6.94,0,0,0-4.91-1.82A7.19,7.19,0,0,0,252.82,40Z"/><path d="M268.42,79c-3.2,9.6-3.5,12.8-1.1,14.9,2.5,2.3,9.4,2.9,16.7,2.9a84.42,84.42,0,0,0,8.7-.4l-.4-7.8c-7.4.4-15,.2-18.4-.4,1.7-7.7,12.1-33.7,22.2-56.7l-7.2-3.1c-.1.2-6.5,14.8-12.5,29.6C272.82,66.67,270.22,73.77,268.42,79Z"/><path d="M286.92,114.47l-.6,7.8a24.37,24.37,0,0,0,2.7.1c22.5,0,24.5-22.9,24.6-23.2l-7.8-.6C305.72,100.27,303.82,115.77,286.92,114.47Z"/><path d="M277.12,23.57l5.2-6c-16.8-14.4-35.7-7.7-43.3-2.1l4.6,6.3C244.32,21.27,260.82,9.57,277.12,23.57Z"/><path d="M331.65,17.67v0c-.12-.34-.24-.69-.34-1v0c-.11-.35-.21-.69-.3-1h0A36.51,36.51,0,0,0,307.32,22l4.6,6.3c.55-.39,10.83-7.67,23.1-4-.45-.68-.86-1.34-1.23-2A27.47,27.47,0,0,1,331.65,17.67Z"/><path class="cls-2" d="M335,24.24c-.45-.68-.86-1.34-1.23-2"/><path d="M331.65,17.67a27.47,27.47,0,0,0,2.14,4.58A27.47,27.47,0,0,1,331.65,17.67Z"/><path d="M440.78,175.22l.31-.24h0Z"/><path d="M446.77,169h0c.37-.55.7-1.1,1-1.64C447.47,167.88,447.13,168.43,446.77,169Z"/><path d="M442.58,157.64c0-.27,0-.54,0-.81,0,.27,0,.54,0,.81Z"/><path d="M440.59,150l-.39-.65h0Z"/><path d="M429.68,158.76q5.7-4.63,10.52-9.41c-.09-.14-.17-.29-.27-.44l0,0a140.67,140.67,0,0,1-11.5,10.2Z"/><path d="M440.2,149.35c-.09-.15-.17-.29-.27-.44.1.15.18.3.27.44Z"/><path d="M428.39,159.14a140.67,140.67,0,0,0,11.5-10.2l-14.46,11.23C426.4,159.79,427.39,159.45,428.39,159.14Z"/><path d="M448,166.92c-.07.14-.15.28-.23.42a45.54,45.54,0,0,1,11.66,6.34h0c.73.36,1.46.75,2.18,1.15h0A45.36,45.36,0,0,0,448,166.92Z"/><path d="M410.73,181.5l-.24-.12.24.12Z"/><path d="M480.75,189.87h0c.43.46.85.93,1.27,1.4-.11-.25-.21-.5-.32-.74l-.62-1.39c-.71-1.59-1.44-3.23-2.27-4.89a48.93,48.93,0,0,0-7.93-11l-.24.5a49.73,49.73,0,0,1,7.58,10.74C479.14,186.24,480,188.07,480.75,189.87Z"/><path d="M450.22,160.23a51.54,51.54,0,0,1,15.06,8.47l.21-.44a53.5,53.5,0,0,0-15.2-8.53v0c0,.15-.05.31-.07.48Z"/><path d="M450.22,160.24a21.49,21.49,0,0,1-.48,2.26l0,.07c-.06.24-.13.48-.21.73l0,.08c-.17.55-.37,1.12-.61,1.7l0,0c-.11.27-.23.54-.36.82l-.05.11c-.14.28-.28.57-.44.87a45.36,45.36,0,0,1,13.62,7.91c.62.34,1.25.66,1.87,1,1.05.61,2.06,1.25,3.05,1.91.32.2.62.41.93.62.7.48,1.39,1,2.07,1.46.31.23.63.45.93.68.84.64,1.66,1.28,2.46,1.94.44.36.86.74,1.29,1.11l1.14,1,1.48,1.35.56.55c1.16,1.11,2.27,2.23,3.33,3.38l0,0c-.79-1.8-1.61-3.63-2.52-5.41a49.73,49.73,0,0,0-7.58-10.74c-.39.83-.8,1.65-1.18,2.48l-6.37-2.88q1-2.32,2.18-4.62a51.54,51.54,0,0,0-15.06-8.47Z"/><path d="M449.74,162.5a21.49,21.49,0,0,0,.48-2.26A21.49,21.49,0,0,1,449.74,162.5Z"/><path d="M320.66,169.89h0a11.79,11.79,0,0,0-2.74-.52l-1.68-.07S319.78,170.54,320.66,169.89Z"/><path d="M327.22,164c.66-.73,1.29-1.49,1.9-2.28l-6.2-4.8a34.18,34.18,0,0,1-3.32,3.71c.21.3.42.58.62.89A24.42,24.42,0,0,1,327.22,164Z"/><path d="M371,84.65a27.37,27.37,0,0,1,14,47.91,42,42,0,0,0,6.68,4.53,34.85,34.85,0,0,0,10.71-25.32,35.26,35.26,0,0,0-27.19-34.26l-.71,1.16C373.22,80.62,372,82.58,371,84.65Z"/><path d="M384.79,142.23c-1-.64-1.93-1.3-2.84-2C382.86,140.93,383.8,141.59,384.79,142.23Z"/><path d="M384.93,132.56a27.14,27.14,0,0,1-7,4.37q1.53,1.42,3.27,2.78l.71.54c.91.68,1.85,1.34,2.84,2a35.46,35.46,0,0,0,6.82-5.14A42,42,0,0,1,384.93,132.56Z"/><path d="M367.12,84.37a27.12,27.12,0,0,1,3.84.28c1.05-2.07,2.26-4,3.46-6l.71-1.16a34.77,34.77,0,0,0-8-.94l-.53,0a54.32,54.32,0,0,0-4.22,8.21A26.56,26.56,0,0,1,367.12,84.37Z"/><path d="M381.24,139.71q-1.74-1.35-3.27-2.78a27.39,27.39,0,1,1-15.6-52.13,54.32,54.32,0,0,1,4.22-8.21,35.19,35.19,0,1,0,18.2,65.64c-1-.64-1.93-1.3-2.84-2Z"/><path d="M378,136.93q1.53,1.42,3.27,2.78Q379.5,138.36,378,136.93Z"/><path d="M488.6,199.62c.46.66.9,1.31,1.34,2C489.5,200.93,489.06,200.28,488.6,199.62Z"/><path d="M487,197.35c.25.34.51.68.75,1Z"/><path d="M490.58,202.57c.34.52.67,1.05,1,1.57C491.25,203.62,490.92,203.09,490.58,202.57Z"/><path d="M484.66,194.39l.58.72Z"/><path d="M398.47,188.32h0c-.86.78-1.72,1.58-2.58,2.39h0C396.75,189.9,397.61,189.1,398.47,188.32Z"/><polygon points="399.25 178.54 399.25 178.54 399.25 178.54 399.25 178.54"/><path d="M427.4,167.31l-.38,0Z"/><path d="M419.7,168.52l-.35.08Z"/><path d="M423.6,167.76l-.56.09Z"/><path d="M434.3,174.25c.69,0,1.37.07,2.05.13C435.67,174.32,435,174.28,434.3,174.25Z"/><path d="M428.36,174.32l1.06-.08Z"/><path d="M431.62,174.19c.42,0,.85,0,1.27,0C432.47,174.19,432,174.18,431.62,174.19Z"/><path d="M437.6,174.5c.48.05,1,.1,1.45.17C438.57,174.6,438.08,174.55,437.6,174.5Z"/><path d="M425.75,174.56l.87-.09Z"/><path d="M417,176.57l.53-.17Z"/><path d="M408.78,180.43l.25-.14Z"/><path d="M441.08,175h0Z"/><path d="M419.68,175.75l.48-.13Z"/><path d="M422.56,175.08l.84-.15Z"/><path d="M414.1,177.68l.51-.22Z"/><path d="M445.11,168.59l-1.18-.25Z"/><polygon points="446.76 168.98 446.77 168.98 446.77 168.98 446.76 168.98"/><path d="M440.57,167.75l-.45-.07Z"/><polygon points="399.25 178.54 399.25 178.54 399.25 178.54 399.25 178.54"/><polygon points="405.98 173.96 405.97 173.97 405.98 173.97 405.98 173.96"/><path d="M410.92,171.44c-.81.36-1.61.72-2.39,1.12C409.31,172.16,410.11,171.8,410.92,171.44Z"/><polygon points="405.98 173.96 405.98 173.96 405.98 173.97 405.98 173.96"/><path d="M377,199.07a68.31,68.31,0,0,1-7.47,5.73A67.08,67.08,0,0,0,377,199.07Z"/><path d="M379.43,196.85c-.78.72-1.56,1.42-2.34,2.11C377.87,198.27,378.65,197.57,379.43,196.85Z"/><path d="M392.21,184.57h0Z"/><path d="M382.65,193.8q-1.61,1.56-3.22,3Q381,195.37,382.65,193.8Z"/><path d="M385.94,190.6c-1.07,1.05-2.14,2.1-3.21,3.13C383.8,192.7,384.87,191.65,385.94,190.6Z"/><polygon points="459.42 173.67 459.43 173.68 459.43 173.68 459.42 173.67"/><path d="M453.56,178.68l1.06.47Z"/><path d="M450.75,177.57l1.07.41Z"/><path d="M462.75,183.65l.63.42Z"/><path d="M443.87,175.55c.57.13,1.13.26,1.7.41C445,175.81,444.44,175.68,443.87,175.55Z"/><path d="M446.7,176.27c.53.15,1.05.29,1.57.46C447.75,176.56,447.23,176.42,446.7,176.27Z"/><path d="M456.43,180l.89.44Z"/><path d="M442.92,175.34l-1.83-.36h0Z"/><path d="M473.6,192.52l.62.62Z"/><path d="M471.27,190.3l.74.69Z"/><path d="M465.94,185.88l.5.38Z"/><path d="M468.47,187.87l.66.54Z"/><path d="M533.32,361.15c0,.47,0,.94,0,1.41C533.3,362.09,533.31,361.62,533.32,361.15Z"/><path d="M531.9,344.89c.05.24.1.49.14.73C532,345.38,532,345.13,531.9,344.89Z"/><path d="M533.34,359c0,.45,0,.9,0,1.35C533.34,359.88,533.34,359.43,533.34,359Z"/><path d="M533.26,356.05c0,.67,0,1.34.06,2C533.31,357.39,533.29,356.72,533.26,356.05Z"/><path d="M533,367.2c-.23,2.67-.58,5.33-1,8C532.42,372.53,532.77,369.87,533,367.2Z"/><path d="M533.14,365.37,533,367Z"/><path d="M533.25,363.29c0,.5,0,1-.07,1.49C533.21,364.29,533.23,363.79,533.25,363.29Z"/><path d="M532.65,349.29c.05.32.09.63.13.95C532.74,349.92,532.7,349.61,532.65,349.29Z"/><path d="M533.12,353.74c0,.32,0,.65.07,1C533.17,354.39,533.15,354.06,533.12,353.74Z"/><path d="M532.31,347.09l.15.88Z"/><path d="M532.92,351.51c0,.32.07.65.1,1C533,352.16,533,351.83,532.92,351.51Z"/><path d="M491.52,218.77c-1-2.27-2.26-4.65-3.62-7.09h0C489.26,214.12,490.47,216.5,491.52,218.77Z"/><path d="M540.16,354c0,.5.06,1,.08,1.51C540.22,355,540.2,354.45,540.16,354Z"/><path d="M540.2,364.66l0,.56Z"/><path d="M540.3,362.3c0,.25,0,.5,0,.75C540.28,362.8,540.29,362.55,540.3,362.3Z"/><path d="M540.32,357.5c0,.33,0,.65,0,1C540.33,358.15,540.32,357.83,540.32,357.5Z"/><path d="M540.34,359.92c0,.29,0,.57,0,.86C540.34,360.49,540.34,360.21,540.34,359.92Z"/><path d="M540,351.55c0,.45.08.91.11,1.36C540.05,352.46,540,352,540,351.55Z"/><path d="M498.07,216.27c.29.64.59,1.28.86,1.9C498.66,217.55,498.37,216.91,498.07,216.27Z"/><path d="M538.22,341c.19.79.36,1.58.52,2.37C538.58,342.62,538.41,341.83,538.22,341Z"/><path d="M539.7,349.15c0,.45.11.91.16,1.37C539.81,350.06,539.75,349.6,539.7,349.15Z"/><path d="M539.34,346.71c.08.48.15,1,.22,1.43C539.49,347.67,539.42,347.19,539.34,346.71Z"/><path d="M538.9,344.19c.1.53.2,1.06.29,1.58C539.1,345.25,539,344.72,538.9,344.19Z"/><polygon points="446.77 168.98 446.77 168.98 446.77 168.98 446.77 168.98"/><path d="M433.94,167.15h0Z"/><polygon points="461.61 174.82 461.62 174.83 461.62 174.83 461.61 174.82"/><polygon points="459.43 173.68 459.43 173.68 459.43 173.68 459.43 173.68"/><path d="M497.21,214.46l-.15-.32h0Z"/><path d="M487.9,211.68h0c-.12-.2-.22-.4-.34-.61h0C487.68,211.28,487.78,211.48,487.9,211.68Z"/><polygon points="474.84 193.8 474.83 193.8 474.84 193.8 474.84 193.8"/><path d="M530.42,383.11l.06-.28-.06.28Z"/><polygon points="480.75 189.87 480.76 189.88 480.75 189.87 480.75 189.87"/><path d="M492.55,205.76l-.19-.33c.07.11.13.22.19.33Z"/><path d="M399.17,187.71h0l-.7.61h0Z"/><path d="M531.22,379.38c-.22,1.08-.45,2.16-.69,3.23C530.77,381.54,531,380.46,531.22,379.38Z"/><path d="M531.89,375.77c-.19,1.11-.39,2.22-.61,3.32C531.5,378,531.7,376.88,531.89,375.77Z"/><path d="M487.56,211.07l-.09-.15.09.15Z"/><path d="M481.71,202a82.3,82.3,0,0,0-6.87-8.23h0A82.3,82.3,0,0,1,481.71,202Z"/><path d="M482.08,202.54l1.15,1.62Z"/><path d="M485.5,207.64c.24.38.48.76.71,1.14C486,208.4,485.74,208,485.5,207.64Z"/><path d="M483.82,205l.93,1.4Z"/><path d="M401.7,185.55c.69-.57,1.38-1.13,2.09-1.67C403.08,184.42,402.39,185,401.7,185.55Z"/><path d="M404.45,183.39c.6-.44,1.19-.89,1.81-1.31C405.64,182.5,405.05,183,404.45,183.39Z"/><path d="M401.44,185.76c-.76.63-1.52,1.29-2.27,2h0C399.92,187.05,400.68,186.4,401.44,185.76Z"/><path d="M408.78,180.43l-.22.15.22-.15Z"/><path d="M497.06,214.14v0Z"/><path d="M469.54,179.85c-.68-.49-1.37-1-2.07-1.46C468.17,178.87,468.86,179.36,469.54,179.85Z"/><path d="M472.93,182.47c-.8-.66-1.62-1.3-2.46-1.94C471.31,181.17,472.13,181.81,472.93,182.47Z"/><path d="M466.54,177.77c-1-.66-2-1.3-3.05-1.91C464.54,176.47,465.55,177.11,466.54,177.77Z"/><path d="M461.62,174.83c.62.34,1.25.66,1.87,1-.62-.37-1.25-.69-1.87-1Z"/><path d="M480.73,189.85l0,0h0Z"/><path d="M492.56,205.77h0Z"/><path d="M477.4,186.47l-.56-.55Z"/><path d="M496,212.07l0,0Z"/><path d="M475.36,184.57l-1.14-1Z"/><path d="M70.82,344.37l6.9-3.6c.77,1.46,1.51,2.84,2.25,4.17l14.46-4.41A49.82,49.82,0,0,1,92,333.21l-18.63,5.66-.4.1-.4.2c-30.46,17.25-54,31.38-72.2,43.15v9.21c17.82-11.65,41.3-25.86,72.43-43.56C72.12,346.81,71.48,345.62,70.82,344.37Z"/><path d="M155.82,391.17a88.81,88.81,0,0,1-40.9-8.4,59.88,59.88,0,0,1-14.3-9.1l-.2-.2-.3-.2S92.69,368.08,80,344.94l-4,1.23c-1.07.61-2.11,1.21-3.17,1.8,12.78,23.47,20.87,30.18,22.87,31.6,2.6,2.4,22.7,19.5,57.7,19.5H156a83.57,83.57,0,0,0,10.7-1l-.31-8A73.49,73.49,0,0,1,155.82,391.17Z"/><path d="M80,344.94c-.74-1.33-1.48-2.71-2.25-4.17l-6.9,3.6c.66,1.25,1.3,2.44,1.93,3.6,1.06-.59,2.1-1.19,3.17-1.8Z"/><rect x="140.38" y="412.42" width="27.1" height="7.8" transform="translate(-240.17 212.1) rotate(-42.32)"/><rect x="116.35" y="394.05" width="7.8" height="23.2" transform="translate(-298.16 342.89) rotate(-64.96)"/><rect x="107.76" y="427.21" width="20.9" height="7.8" transform="translate(-276.94 222.1) rotate(-46.79)"/><polygon points="138.68 436.23 132.42 440.89 136.46 446.31 142.63 441.53 138.68 436.23"/><rect x="80.02" y="422.77" width="27.4" height="7.8" transform="translate(-225.59 128.55) rotate(-34.58)"/><rect x="85.47" y="389.23" width="7.8" height="20.4" transform="translate(-3.35 0.76) rotate(-0.48)"/><rect x="48.68" y="395.17" width="25.9" height="7.8" transform="translate(-78.3 20.29) rotate(-11.5)"/><rect x="44.16" y="369.66" width="30.9" height="7.8" transform="translate(-272.44 192.33) rotate(-52.31)"/><rect x="25.76" y="387.81" width="7.8" height="35.2" transform="translate(-202.76 71.91) rotate(-30.69)"/><rect x="35.74" y="426.07" width="37.6" height="7.8" transform="translate(-315.19 203.81) rotate(-51.32)"/><rect x="77.3" y="434.03" width="7.8" height="33.5" transform="translate(-335.76 261.19) rotate(-55.34)"/><path d="M106.79,452.33l3.1,10.78c2.63-1.41,5-2.67,7-3.73l-2.64-9.2Z"/><rect x="52.43" y="463.66" width="24" height="7.8" transform="translate(-234.7 102.48) rotate(-31.48)"/><path d="M73.5,475.94l1.38,7.19c2.4-1.47,4.78-2.9,7.12-4.29l-.84-4.37Z"/><path d="M45.85,489.64l3,10.43q3.35-2.34,6.77-4.65l-2.33-8Z"/><rect x="31.37" y="446.76" width="7.8" height="28" transform="translate(-246.65 94.61) rotate(-33.22)"/><path d="M19.55,428.44l-19.23,11v3.46s0,2,.29,5.35l22.8-13Z"/><path d="M24.22,468.67H4.28c.68,2.52,1.48,5.13,2.41,7.8H24.22Z"/><path d="M29.63,490.26,19.17,500.72c1.51,2.09,3.14,4.14,4.9,6.13l11.08-11.07Z"/><path d="M137.45,299.26h0q.13-1.26.36-2.49l.12-.57c.13-.64.27-1.28.44-1.92l.17-.62c.19-.64.39-1.27.62-1.9.06-.16.11-.32.17-.49.29-.77.61-1.53,1-2.28-10.57,5.82-26.8,12.41-44.9,11.36l2.22.42.19,7.47c.53,0,1.06,0,1.61,0C114.14,308.27,127.33,304,137.45,299.26Z"/><path d="M104.32,235.07l-.4,7.8h1.8c23.3,0,24.8-23.6,24.9-23.8l-7.8-.4C122.72,220.37,121.22,236,104.32,235.07Z"/><path d="M108.82,209.17c-7.3.6-15,.6-18.4.1,1.5-7.8,11.2-34,20.7-57.3l-7.2-3c-.1.2-6.1,15-11.7,29.9-3.3,8.8-5.8,15.9-7.4,21.2-3,9.7-3.1,12.9-.7,14.9,2.2,1.9,7.7,2.5,13.9,2.5,3.8,0,7.8-.3,11.4-.5Z"/><path d="M162.12,131.57l4.4-6.5c-8.2-5.7-28.2-12.5-44.6,2.4l5.2,5.8C143,118.87,161.32,131,162.12,131.57Z"/><path d="M84.72,133.47l4.4-6.4c-6.44-4.37-20.52-9.42-34.46-2.66-.91,3.61-1.68,7.24-2.33,10.74C67.87,122.45,83.94,133.08,84.72,133.47Z"/><path d="M75,165.37a16.7,16.7,0,0,0-9.41.25,6.16,6.16,0,0,0-1.88,4.45,6.77,6.77,0,0,0,6.8,6.6,6.54,6.54,0,0,0,6.8-6.4A6.4,6.4,0,0,0,75,165.37Z"/><path d="M140.68,164a6.24,6.24,0,0,0-1.56,4.11,6.77,6.77,0,0,0,6.8,6.6,6.54,6.54,0,0,0,6.8-6.4,6.42,6.42,0,0,0-2.67-5.18A17,17,0,0,0,140.68,164Z"/><path d="M126.82,163.67l5.2,5.8a27.1,27.1,0,0,1,8.66-5.51,6.72,6.72,0,0,1,5.24-2.29,7.26,7.26,0,0,1,4.13,1.42,18.94,18.94,0,0,1,9.67,5.28l5.7-5.3C165.22,162.87,147.92,144.57,126.82,163.67Z"/><path d="M140.68,164a17,17,0,0,1,9.37-.87,7.26,7.26,0,0,0-4.13-1.42A6.72,6.72,0,0,0,140.68,164Z"/><path d="M75,165.37a19.84,19.84,0,0,1,8.61,5l5.7-5.3c-.2-.2-17.5-18.5-38.6.6l5.2,5.8a26.1,26.1,0,0,1,9.68-5.85,7,7,0,0,1,4.92-2A7.2,7.2,0,0,1,75,165.37Z"/><path d="M75,165.37a7.2,7.2,0,0,0-4.49-1.7,7,7,0,0,0-4.92,2A16.7,16.7,0,0,1,75,165.37Z"/><path d="M44.12,102.67l1-3.8-3.8-1a23.5,23.5,0,0,1-3.8-1.4c-.8-.4-1.7-.8-2.5-1.2-4.8-2.3-8.3-4-10.1-8.4a31.83,31.83,0,0,1-1-18,11,11,0,0,0,1.6,1.5c6.7,5.1,18,2.3,22.6.9,2.4-.8,6-2.5,11-4.8,28.4-13.2,94.8-44.2,136,2.2l.3.3c22.15,20.16,25.82,51.72,24.26,76.49a26.1,26.1,0,0,1,8-2.17,151.77,151.77,0,0,0-.34-19.52c-1.79-20.94-8-38.19-18.55-51.48-.16-.21-.33-.4-.5-.6-.91-1.13-1.86-2.22-2.83-3.28l-.08-.08q-1.46-1.59-3-3.09l-.43-.41c-.4-.38-.79-.78-1.2-1.16-19.4-21.8-46.1-30.5-79.2-25.9-26.8,3.7-51.3,15.1-65.9,21.9-4.5,2.1-8.1,3.8-10,4.4-6.8,2.2-13,2.3-15.5.4-.7-.6-1.6-1.5-1.5-4.2l.3-8.8-6.7,5.7c-8.8,7.5-8.3,24-4.6,33,3,7.3,8.6,9.9,14,12.5a25.57,25.57,0,0,1,2.4,1.1c.5.2,1.1.5,1.6.7-3.9,17.6-1.9,38,5.4,55.4l.95,2.29c.37-8.34.77-16.24,1.16-23.3C40.84,126.58,41.09,113.86,44.12,102.67Z"/><path d="M48.92,156.07c.3-1.6.6-3.7,1-6.2.23-1.49.47-3.12.74-4.83.47-3,1-6.4,1.67-9.89-.4.33-.81.66-1.21,1l-5.2-5.8a37.3,37.3,0,0,1,8.74-6,88.11,88.11,0,0,1,5.86-16.84h3.1c11,.1,22.4.2,33.7-.3,5-.3,10-.7,14.8-1.2,6.2-.6,12.7-1.2,19-1.3,22.5-.3,37.7,6.4,46.4,20.5a36.94,36.94,0,0,1,4.2,9c.2,3.9.1,7.7.1,11.8,0,3.9,0,8,.1,12.1a38,38,0,0,0,.29,5.61,21.93,21.93,0,0,1,7.6-6.2c-.18-3.78-.09-7.74-.09-11.51,0-4.2,0-8.5-.1-12.7v-.5l-.2-.5a52.56,52.56,0,0,0-5.2-11.3c-10-16.1-27.4-24.2-51.8-24.2h-1.3c-6.6.1-13.2.7-19.6,1.3-4.7.4-9.6.9-14.4,1.1-11,.5-22.3.4-33.2.3l-4.49,0-3.41,0-1.1,2.1c-6.3,11.5-9.5,27.2-11.4,39.3q-.21-1-.39-2c-.39,7.06-.79,15-1.16,23.3l4.15,9.91Z"/><path d="M45.92,130.37l5.2,5.8c.4-.36.81-.69,1.21-1,.65-3.5,1.42-7.13,2.33-10.74A37.3,37.3,0,0,0,45.92,130.37Z"/><path d="M147.62,369.77a9.68,9.68,0,0,1,2.9.2,93.57,93.57,0,0,0,15.07-1.61l-.31-8.16a86.54,86.54,0,0,1-15.06,1.67c-18.3.4-32.1-3.9-41.1-13a36.34,36.34,0,0,1-7.21-10.63l-7.48,2.29a44.69,44.69,0,0,0,9.19,13.84C113.62,364.57,128.42,369.77,147.62,369.77Z"/><path d="M98.12,321v-.1l-.31-12.63c-1.43,0-2.84-.09-4.29-.17l.6-7.8c.43,0,.85.05,1.28.08l-.88-.18a74.74,74.74,0,0,1-20.4-7.7c-13.5-7.5-21.5-18-23.7-31-3.74-21.67-1.7-78.54.24-116.43-.27,1.71-.51,3.34-.74,4.83-.4,2.5-.7,4.6-1,6.2l-2.8,16L42,162.16c-1.6,36.46-2.62,81.33.75,100.71,2.6,15.3,12.3,27.9,27.8,36.6a82.11,82.11,0,0,0,19.5,7.8l.4,13.6A45.84,45.84,0,0,0,92,333.21l7.45-2.27A40.42,40.42,0,0,1,98.12,321Z"/><path d="M101.91,338.24a42.84,42.84,0,0,1-2.51-7.3L92,333.21a49.82,49.82,0,0,0,2.48,7.32Z"/><path d="M95.4,300.35c-.43,0-.85,0-1.28-.08l-.6,7.8c1.45.08,2.86.14,4.29.17l-.19-7.47Z"/><polygon points="173.56 366.42 173.62 368.02 173.56 366.42 173.56 366.42"/><path d="M214.79,176.34l-.31.31.22,0Z"/><polygon points="173.54 365.85 173.56 366.42 173.56 366.42 173.54 365.85"/><path d="M579.58,476.25l-6,5.2,13.71,16.62-2.07,36h5.28s1,0,2.67-.09l2.22-38.61Z"/><path d="M553,474.77a148,148,0,0,0-33.9,19,140.86,140.86,0,0,0-14.17,12h0c2.21,1.14,4.64,2.47,7.23,4a146.74,146.74,0,0,1,43-27.46l6.29-.68,10.39-9-18.48,2Z"/><path d="M662.29,297.62a7.94,7.94,0,0,0,.43-2.55c0-6.39-7.94-11.89-18.43-13.57C648.34,286,654.11,291.2,662.29,297.62Z"/><path d="M536.68,286.68c-3.16,2.35-5.06,5.27-5.06,8.39s1.83,5.88,4.88,8.22Q536.49,295,536.68,286.68Z"/><path d="M528.62,306.64q0,2.79.06,5.58c1.18,4.4,2.8,8.8,4.47,13.33,1.58,4.26,3.2,8.65,4.45,13.13q-.78-13.11-1-26.16A27.84,27.84,0,0,1,528.62,306.64Z"/><path d="M670.49,294.21c0,.28,0,.57,0,.86a15.85,15.85,0,0,1-1.92,7.51c12.21,10.25,9.34,14.92,4,23.59-5.2,8.4-12.2,19.8-4.4,38.5A51.09,51.09,0,0,0,682,387.83V375.92a41.84,41.84,0,0,1-6.4-13.45l-.1-.3-.1-.3c-6.4-15.2-1.3-23.5,3.7-31.6,1.07-1.73,2-3.42,2.9-5.09V306C679.79,302.39,676.1,298.53,670.49,294.21Z"/><path d="M541.35,227a101.13,101.13,0,0,0-9.49,28l.36.74-.55.25a180.89,180.89,0,0,0-2.79,27.24,28.48,28.48,0,0,1,8.17-5.85c1.43-23.61,6.66-41.16,16.17-54.84a41.13,41.13,0,0,1,24.8-17.1c1.8,5.7,7.6,15,26.5,20.3,21.8,6,29.2,10.4,30.1,24.6.1,2,.1,3.9.1,5.7a42.47,42.47,0,0,0,1.07,11.09,32.8,32.8,0,0,1,9.18,2.15c-2.52-4.73-2.55-8.57-2.55-13.24-.1-1.9-.1-3.9-.2-6.2-.5-9.1-3.3-15.2-8.9-20-5.3-4.5-13.1-7.9-26.9-11.7-21.2-5.8-21.5-16.6-21.5-17l.2-4.6-4.5.6c-13.6,1.6-25.6,9.1-33.9,21a79.68,79.68,0,0,0-4.8,7.79l.3.71Z"/><path d="M583.13,444.25h0a17.88,17.88,0,0,1,7.93-2.88h0L591,430a71.66,71.66,0,0,1-8-1Z"/><path d="M536.44,388c3.95,12.19,10,22.05,18.18,29.81,5.7,5.3,12.5,7.1,19,8.8,1,.3,1.84.49,2.81.78l2.39-7.38a60.53,60.53,0,0,0,12.1,2.18v-.58l-3.5-.3c-3.1-.4-8.2-1.3-8.7-1.4-1-.3-2-.5-3-.8-6.1-1.6-11.4-3-15.6-7-10.86-10.21-17.49-24.85-20.11-44.66A125.19,125.19,0,0,1,536.44,388Z"/><polygon points="577.76 467.43 577.76 467.43 571.9 472.54 561.51 481.59 561.42 481.67 559.65 534.08 559.65 534.08 561.42 481.68 577.76 467.43"/><path d="M582.19,445l0,0Z"/><path d="M584.28,459.52c0-.41,0-.83,0-1.25C584.25,458.69,584.26,459.11,584.28,459.52Z"/><path d="M580.58,446.51l-.13.14Z"/><path d="M581.27,445.78l.08-.07Z"/><polygon points="583.12 444.25 583.13 444.25 583.13 444.25 583.12 444.25"/><path d="M584.3,459.79a.86.86,0,0,0,0,.16h0C584.31,459.9,584.3,459.84,584.3,459.79Z"/><path d="M576.63,460.37h0c-.28-4.16.25-8.93,3.09-12.79l0,0,0,0C576.88,451.43,576.35,456.2,576.63,460.37Z"/><path d="M594.28,449.06c.26,0,.52,0,.8,0C594.8,449,594.54,449.05,594.28,449.06Z"/><path d="M592.55,449.18q.48-.06,1-.09C593.2,449.11,592.87,449.15,592.55,449.18Z"/><path d="M591.12,449.41c.34-.07.71-.13,1.08-.18C591.83,449.28,591.46,449.34,591.12,449.41Z"/><path d="M594,441.13h0Z"/><path d="M682,433h0c-15.5,4.32-44.72,8.6-71.8,8.57C637.3,441.58,666.52,437.3,682,433Z"/><path d="M595.45,441.11h0Z"/><path d="M592.51,441.21h0Z"/><path d="M601.09,449.28h0c-1.5-.06-2.93-.12-4.27-.21h0C598.16,449.16,599.59,449.22,601.09,449.28Z"/><path d="M584.31,457.27c0-.14,0-.28,0-.42C584.33,457,584.32,457.13,584.31,457.27Z"/><path d="M584.42,456.27l.06-.36Z"/><path d="M584.67,455a1.09,1.09,0,0,1,.05-.17A1.09,1.09,0,0,0,584.67,455Z"/><path d="M585,454.13l.1-.27Z"/><path d="M585.32,453.27c0-.08.08-.16.13-.24C585.4,453.11,585.36,453.19,585.32,453.27Z"/><path d="M586.62,451.54a1.29,1.29,0,0,1,.17-.16A1.29,1.29,0,0,0,586.62,451.54Z"/><path d="M584.26,458.25c0-.13,0-.27,0-.4C584.27,458,584.26,458.12,584.26,458.25Z"/><path d="M587.54,450.81l.34-.21Z"/><path d="M589.63,449.82a11.93,11.93,0,0,1,1.46-.4A11.93,11.93,0,0,0,589.63,449.82Z"/><polygon points="583.13 444.25 583.13 444.25 583.13 444.25 583.13 444.25"/><path d="M588.46,450.3c.25-.12.51-.24.78-.34C589,450.06,588.71,450.18,588.46,450.3Z"/><path d="M593.72,280c-.06.11-2,4.51-4.7,10.87l.09.33h8.29c1.17-2.71,2.35-5.43,3.52-8.1Z"/><path d="M581.06,310c-3.52,8.52-6.07,15.49-7.84,20.6-3.2,9.6-3.5,12.8-1.1,14.9,2.5,2.3,9.4,2.9,16.7,2.9a85.73,85.73,0,0,0,8.7-.4l-.4-7.8c-7.5.4-15,.2-18.4-.4,1.31-5.94,7.82-22.82,15.37-40.8h-5C588,303.21,585.17,307,581.06,310Z"/><path d="M591.62,366.17,591,374a24.37,24.37,0,0,0,2.7.1c22.5,0,24.6-23,24.6-23.2l-7.8-.6C610.42,352,608.52,367.47,591.62,366.17Z"/><path d="M581.82,275.17l5.2-6c-16.8-14.4-35.7-7.7-43.3-2.1l4.6,6.3C549,272.87,565.52,261.17,581.82,275.17Z"/><path d="M612.12,273.57l3.65,5a43.65,43.65,0,0,1,21.85-5.41,46.33,46.33,0,0,1,17.23,3.16l.57-.66A36.39,36.39,0,0,0,645,269.31a32.8,32.8,0,0,0-9.18-2.15A36.51,36.51,0,0,0,612.12,273.57Z"/><path d="M573.61,481.45l6-5.2,2.14-1.87a21.13,21.13,0,0,1-4-6.95l-16.34,14.24-1.77,52.4h7.83l1.64-48.7Z"/><path d="M610.22,441.55c-4.38,0-8.7-.13-12.9-.38l-1.62-.06H594c-.48,0-1,0-1.42.07h0c-.5,0-1,.09-1.45.16h0a17.88,17.88,0,0,0-7.93,2.88h0c-.32.23-.63.47-.93.71l0,0c-.28.23-.56.47-.82.73l-.08.07c-.24.24-.47.48-.69.73l-.13.14c-.24.29-.48.59-.71.9l0,0c-2.84,3.86-3.37,8.63-3.09,12.79a8.84,8.84,0,0,1,.09-1.29l3.9.5,3.69.38a.86.86,0,0,1,0-.16c0-.09,0-.18,0-.27,0-.41,0-.83,0-1.25v0c0-.13,0-.27,0-.4l0-.58c0-.14,0-.28,0-.42s0-.39.07-.58l.06-.36a8.79,8.79,0,0,1,.19-.89,1.09,1.09,0,0,1,.05-.17,6.67,6.67,0,0,1,.23-.72l.1-.27a6.28,6.28,0,0,1,.27-.59c0-.08.08-.16.13-.24a6,6,0,0,1,.47-.76,6.88,6.88,0,0,1,.7-.73,1.29,1.29,0,0,1,.17-.16,7.38,7.38,0,0,1,.75-.57l.34-.21a6.36,6.36,0,0,1,.58-.3c.25-.12.51-.24.78-.34s.25-.1.39-.14a11.93,11.93,0,0,1,1.46-.4h0c.34-.07.71-.13,1.08-.18l.35-.05c.32,0,.65-.07,1-.09s.49,0,.74,0,.52,0,.8,0c.56,0,1.13,0,1.74,0h0c1.34.09,2.77.15,4.27.21a31.86,31.86,0,0,1,9.43-7.41l3.2,7.1-1.6-3.6,1.6,3.6s-.28.14-.76.41c4.14-.05,8.53-.19,13.08-.41a12.18,12.18,0,0,0-.82-1.3l6.3-4.7a30.25,30.25,0,0,1,3,5.48c6.78-.49,13.71-1.17,20.47-2.05a14.62,14.62,0,0,0-1.27-1.63l5.7-5.4a29,29,0,0,1,4,5.81,184.51,184.51,0,0,0,18.65-3.9V433C666.52,437.3,637.3,441.58,610.22,441.55Z"/><line class="cls-2" x1="584.52" y1="460.07" x2="584.51" y2="460.07"/><path d="M666.93,464.55a38.83,38.83,0,0,1-1.41,6.72L658,469a31.29,31.29,0,0,0,.77-3.15A116.77,116.77,0,0,0,645,470.07c-2.63,1-5.3,1.92-8.13,2.8a48.7,48.7,0,0,1-1.87,6.8l-7.4-2.6c.24-.69.46-1.38.66-2.05-1.09.2-2.2.39-3.36.55-9,1.3-15.91,1.37-21.29.7.24.73.5,1.46.79,2.2l-7.2,2.9a44,44,0,0,1-2.2-7.18,18.66,18.66,0,0,1-6.3-3.92,13.56,13.56,0,0,1-4.21-10.2.46.46,0,0,0,0-.1l-.21,0h0l-3.69-.38-3.9-.5a8.84,8.84,0,0,0-.09,1.29h0a21,21,0,0,0,1.13,7.05h0a21.13,21.13,0,0,0,4,6.95,18.65,18.65,0,0,0,1.3,1.39c5.9,5.9,15.3,8.8,27.9,8.8a107.45,107.45,0,0,0,15.1-1.2c8.7-1.2,15.2-3.6,21.6-5.9,9.29-3.31,17.4-6.18,30.62-5.07.69-2.48,1.3-5.06,1.81-7.74A68.11,68.11,0,0,0,666.93,464.55Z"/><line class="cls-2" x1="612.12" y1="445.37" x2="613.72" y2="448.97"/><path d="M595,474.19a44,44,0,0,0,2.2,7.18l7.2-2.9c-.29-.74-.55-1.47-.79-2.2-2.61-7.95-1.94-14.81,2.09-20.4a24,24,0,0,1,7.24-6.49c.48-.27.76-.41.76-.41l-3.2-7.1a31.86,31.86,0,0,0-9.43,7.41h0C596.55,454.48,592.58,462.6,595,474.19Z"/><path d="M628.28,475c-.2.67-.42,1.36-.66,2.05l7.4,2.6a48.7,48.7,0,0,0,1.87-6.8,40.93,40.93,0,0,0-2.37-24.42,30.25,30.25,0,0,0-3-5.48l-6.3,4.7A12.18,12.18,0,0,1,626,449C627.94,452.3,632.18,461.84,628.28,475Z"/><path d="M658.79,465.82A31.29,31.29,0,0,1,658,469l7.5,2.3a38.83,38.83,0,0,0,1.41-6.72,33.09,33.09,0,0,0-3.56-19.37,29,29,0,0,0-4-5.81l-5.7,5.4A14.62,14.62,0,0,1,655,446.4,25.5,25.5,0,0,1,658.79,465.82Z"/><path d="M594.55,529l2.18,4.68c2.23-.21,5-.54,8.11-1.06l-3.22-6.92Z"/><path d="M589.11,299h-3.39v-7.8h3.39l-.09-.33c-2.89-10.2-16.07-17.67-32.3-17.67a45.1,45.1,0,0,0-19.67,4.24,28.48,28.48,0,0,0-8.17,5.85l-.4.42c-.18,2-.42,3.94-.67,5.85a79.2,79.2,0,0,0-.89,11,38.66,38.66,0,0,0,.32,4.44,21.16,21.16,0,0,0,1.38,1.68,27.84,27.84,0,0,0,8,5.88A44.75,44.75,0,0,0,556.72,317c9.76,0,18.37-2.67,24.34-7C585.17,307,588,303.21,589.11,299Zm-32.39,10.2c-8.19,0-15.61-2.35-20.22-5.88-3-2.34-4.88-5.19-4.88-8.22s1.9-6,5.06-8.39c4.63-3.45,12-5.71,20-5.71,13.6,0,25.1,6.4,25.1,14.1S570.32,309.17,556.72,309.17Z"/><path d="M637.62,273.17a43.65,43.65,0,0,0-21.85,5.41c-5.44,3.18-9.23,7.57-10.54,12.59h3.29V299h-3.29c2.67,10.37,15.9,18,32.39,18,14.43,0,26.46-5.9,31-14.39a15.85,15.85,0,0,0,1.92-7.51c0-.29,0-.58,0-.86-.43-7.68-6.53-14.22-15.64-17.88A46.33,46.33,0,0,0,637.62,273.17Zm0,36c-13.6,0-25.1-6.5-25.1-14.1S624,281,637.62,281a42.4,42.4,0,0,1,6.67.53c10.49,1.68,18.43,7.18,18.43,13.57a7.94,7.94,0,0,1-.43,2.55C660.1,304.13,649.69,309.17,637.62,309.17Z"/><polygon points="608.52 291.18 605.23 291.18 597.4 291.18 589.11 291.18 585.72 291.18 585.72 298.97 589.11 298.97 594.09 298.97 605.23 298.97 608.52 298.97 608.52 291.18"/><path d="M679.42,141.27c.2,2.7.4,5.4-.7,6.3-.8.6-2.4.4-5,0-2.3-.3-4.9-.8-7.6-.2-6.2,1.3-9.7,7-10.8,12a44.56,44.56,0,0,0-.9,8c-.1,1.7-.2,3.3-.4,4.9-.2,2.1-.8,2.5-.8,2.5-.4.3-2.4-.5-3.4-.9-.4-.2-.8-.3-1.2-.5-5.1-1.9-12-1.6-16,3.2-3.4,4.2-3,9.3-2.6,13.8.4,4.1.5,6.7-1,7.9-1.1.8-3.2,1-6.1.4l-1.6-.3c-3-.7-6.3-1.4-9.8-.6a10.82,10.82,0,0,0-7.1,5.6,7.87,7.87,0,0,0-.3,7l7.4-3.4a2.79,2.79,0,0,1,2-1.8c1.8-.4,4,.1,6.3.6a10.46,10.46,0,0,0,1.7.4c5.4,1.1,9.7.4,12.7-2.1,4.6-3.9,4.2-9.8,3.8-14.5-.2-3.3-.5-6.5.9-8.2s4.7-1.7,7.2-.8c.4.1.7.3,1.1.4,2.7,1.1,6.4,2.6,10.1.6,2.7-1.4,4.3-4.2,4.9-8.3.2-1.9.3-3.8.4-5.6a35.12,35.12,0,0,1,.7-6.6c.6-2.6,2.3-5.6,4.7-6.1a13.16,13.16,0,0,1,4.7.3c2.76.51,6.16,1.07,9.3-.46V128.69a16.36,16.36,0,0,0-2.8,9.28C679.22,139.07,679.32,140.17,679.42,141.27Z"/><path d="M662.12,81.27l-4,6.7c-.1,0-.2-.2-.2-.3a4.15,4.15,0,0,1-2,3.1c-.9.5-2,.9-3.1,1.4-2.9,1.1-6.1,2.5-8.3,5.6a11,11,0,0,0,.5,13,16.26,16.26,0,0,0,2.7,2.6c.6.5,1.1.9,1.5,1.3a3.91,3.91,0,0,1,0,4.9c-1.4,1.6-4.3,2-7.4,2.5-.8.1-1.6.3-2.4.4-6.3,1.1-12.5,5.2-12.2,11.8a13.82,13.82,0,0,0,2.5,6.8c.1.2.3.5.4.7,2.5,4.2,3,10.1-.2,12-1.4.9-3.5,1-5.7,1.2-3.4.2-7.5.5-10.7,3.5-5.1,4.8-4,12.5-.6,18.1l6.8-4.2c-1.7-2.79-2.4-6.7-.7-8.29,1.2-1.11,3.4-1.31,5.9-1.5,2.9-.31,6.1-.5,9.1-2.31,5.9-3.5,8.6-13,2.9-22.6-.2-.3-.3-.5-.5-.8a7.18,7.18,0,0,1-1.4-3c-.1-1.7,2.9-3.3,5.7-3.8l2.1-.3c3.9-.6,8.8-1.3,12.1-5a11.81,11.81,0,0,0,.1-15.3,13.08,13.08,0,0,0-2.5-2.3,12.21,12.21,0,0,1-1.6-1.4,3.35,3.35,0,0,1-.1-3.6c.9-1.3,2.8-2,4.9-2.9a23.48,23.48,0,0,0,4-1.8,11.87,11.87,0,0,0,6-9.7A7.46,7.46,0,0,0,662.12,81.27Z"/><path d="M600.52,118.37c.8-.5,1.6-.9,2.3-1.4,5.2-3.3,8.9-9.8,5.5-15.2a11.42,11.42,0,0,0-3.7-3.6l-.9-.6a7.1,7.1,0,0,1-2.9-5.6c.2-1.6,1.5-3.2,2.9-3.3l-.5-7.8A11.44,11.44,0,0,0,593,91.47c-.4,4.5,1.9,9.2,5.9,12.3a10.47,10.47,0,0,0,1.1.8,5.85,5.85,0,0,1,1.6,1.3c.5.8-.9,3.1-3.1,4.5-.6.4-1.3.8-2,1.2-3,1.7-6.8,3.9-8.5,8.1-2.9,7.1,2.2,14.5,8.8,17.7.2.1.5.2.7.3a10.89,10.89,0,0,1,1.7,1c.5.5.3,2.3-.8,3.8a26.36,26.36,0,0,1-5.1,4.8c-3.3,2.7-7.1,5.6-8.6,10.4-2.2,7,1.8,15.2,8.9,18.2l3.1-7.2c-3.3-1.4-5.5-5.5-4.5-8.6.8-2.5,3.2-4.4,6-6.6a32.61,32.61,0,0,0,6.6-6.3c2.9-4,3.9-10,.2-13.8a13.13,13.13,0,0,0-4.1-2.7l-.6-.3c-3.2-1.6-6.1-5.1-5-7.7C596,121,598.22,119.67,600.52,118.37Z"/><path d="M575.72,178.87a6.66,6.66,0,0,1-2.5-6.3,26.28,26.28,0,0,1,1-3,26.54,26.54,0,0,0,1.1-3c1.1-3.9.5-7.6-1.7-10-3.1-3.4-8.3-3.7-14.1-.8l-.2.1c-2.2,1.1-4.8,2.4-6,1.8-.9-.5-1.3-2.6-.8-4.6a23,23,0,0,1,1.4-3.9,28.19,28.19,0,0,0,2-6c.9-5-1-11.3-6.5-13a12.69,12.69,0,0,0-5.8-.1,72.09,72.09,0,0,0-9.2,2.1h-.1a6.25,6.25,0,0,1-1.4.4,3.31,3.31,0,0,1-1-2l-.3-1.8a17.53,17.53,0,0,0-1.8-5.8l-6.8,3.9a11.45,11.45,0,0,1,.8,3.2,22.31,22.31,0,0,0,.4,2.3c1,4.4,3.8,7.3,7.3,7.9a10.92,10.92,0,0,0,5-.6h.1a57.36,57.36,0,0,1,8.2-1.9,5.52,5.52,0,0,1,2.2-.1c.8.3,1.5,2.2,1.1,4.1a22.93,22.93,0,0,1-1.5,4.4,36.82,36.82,0,0,0-1.8,5c-1.2,4.6-.2,10.9,4.9,13.4,4.8,2.3,9.5-.1,13-1.8l.2-.1c2.5-1.2,4.4-1.3,4.8-.9a3.51,3.51,0,0,1,0,2.6,20.94,20.94,0,0,1-.8,2.3,25.26,25.26,0,0,0-1.4,4.4,14.46,14.46,0,0,0,5.5,14.1,14,14,0,0,0,8.4,2.7,15.8,15.8,0,0,0,6.8-1.6l-3.7-6.9A6.65,6.65,0,0,1,575.72,178.87Z"/><path d="M553.22,187.87a15.06,15.06,0,0,0-15.8,1.4c-.3.2-.5.4-.8.6a5.55,5.55,0,0,0-.8.6l-.3-.3a10,10,0,0,1-.8-3.4l-1.1-9c-.2-1.9-.6-5-3-7.3-2-2-6.6-4.4-14.7,1.2-2.7,1.9-4.4,2-4.7,1.9-.3-.3-.3-2-.3-2.9v-.9c-.1-4.8-2.5-8.4-6.2-9.1a9.3,9.3,0,0,0-6.1,1.2l-.6.3a1,1,0,0,1-.6.2,1.5,1.5,0,0,1,1.1.6l-6.1,4.9c2,2.5,5.5,3,8.9,1.4a3,3,0,0,1,.8-.4,5.94,5.94,0,0,1,.8-.4,6.05,6.05,0,0,1,.2,1.5v.8c0,2.4,0,5.7,2.4,8.2,3.4,3.6,9,3.3,14.9-.8,3.1-2.1,4.7-2.2,4.9-2a9.05,9.05,0,0,1,.6,2.6l1.1,9a15.59,15.59,0,0,0,1.8,6.4,8.2,8.2,0,0,0,8.4,4.1,10.14,10.14,0,0,0,4.4-2.4,2.65,2.65,0,0,1,.6-.5,7,7,0,0,1,11.3,5.8l7.8.3A14.65,14.65,0,0,0,553.22,187.87Z"/><path d="M680.22,188.87c-3.1,3.4-4.5,7.4-5.9,11.3a40.9,40.9,0,0,1-1.6,4.2c-1.6,3.7-4.7,7.1-7.7,6.7a10.19,10.19,0,0,1-2.5-.8c-.8-.3-1.8-.7-2.9-1a14.22,14.22,0,0,0-15.3,21.9l6.3-4.4a6.67,6.67,0,0,1,0-7.3,7,7,0,0,1,6.9-2.5,9.61,9.61,0,0,1,2,.7,18,18,0,0,0,4.3,1.3c7.7,1.2,13.4-5.4,16-11.3a46.81,46.81,0,0,0,1.8-4.8l.4-1.09V187.26A14.68,14.68,0,0,0,680.22,188.87Z"/><path d="M665.82,236.67a14.24,14.24,0,0,0-4.7,14l7.4-2a6.54,6.54,0,0,1,2.1-6.2,6.62,6.62,0,0,1,6.5-.9,12.14,12.14,0,0,1,3.3,2.1c.52.39,1.05.78,1.6,1.16v-9.31a16.33,16.33,0,0,0-1.6-.85A14.31,14.31,0,0,0,665.82,236.67Z"/><path d="M677.92,274.57l4.1,1.15v-8.06A15,15,0,0,0,677.92,274.57Z"/><path d="M674.32,344.07l7.5-2.2v.2a.68.68,0,0,1,.2-.25v-8.2a9.71,9.71,0,0,0-5.8,3.05A7.39,7.39,0,0,0,674.32,344.07Z"/><path d="M508.22,218.77c1.9-3.2,3.5-4.2,4.2-4.1s1.5,1,2.3,2.7a14.17,14.17,0,0,1,.8,1.8,20.06,20.06,0,0,0,3.1,5.7,14.84,14.84,0,0,0,11.5,4.9c.3,0,.7-.1.9,0A33.65,33.65,0,0,0,541.35,227l.87-.36-.3-.71-2.7-6.49a28.15,28.15,0,0,1-8.7,2.5c-2.5.1-4.9-.7-6.1-2.1a17.21,17.21,0,0,1-1.8-3.6c-.3-.8-.6-1.5-.9-2.2-1.8-4-4.7-6.6-8.1-7.1-4.4-.7-8.5,1.9-12.1,7.8a17.17,17.17,0,0,1-2.54,3.52,36.54,36.54,0,0,1,2.61,7.66C505,224.14,507.13,220.59,508.22,218.77Z"/><path d="M532.22,255.77l-.36-.74a17.71,17.71,0,0,0-11.64-9.56,15.22,15.22,0,0,0-2.41-.35,58,58,0,0,1,7.44,13.8l6.42-2.9Z"/><path d="M666.26,60.93c-4.23,1.92-6.93,3-8.88,2l-.1-.06a10.3,10.3,0,0,1-2.56-2.62l-.24-.29c-1.44-1.86-3.62-4.66-7-5.69-5.46-1.73-10.2,1.68-13.66,4.17l-1.22.91a7.9,7.9,0,0,1-5,1.46.67.67,0,0,1-.28-.12l-.09-.33c-.08-.27-.16-.56-.26-.86l-.05-.16a9,9,0,0,0-2.1-3.81c-2.47-2.47-6.37-2.7-10.23-.55a31.21,31.21,0,0,0-5,3.85l-.68.6a34.13,34.13,0,0,1-3.34,2.81c-1.93,1.35-4.47,1.77-5.42.89l-.18-.16a3.29,3.29,0,0,1-.58-.71l-.18-.24-.3-.4a13.36,13.36,0,0,0-1.26-1.49L597.5,60c-4.91-4.55-12.88-3-19.82,3.76-4.52,4.4-7.65,6.07-9.6,5.07a6.71,6.71,0,0,1-1-.7l-.48-.36a10.63,10.63,0,0,0-2.78-1.59c-5.85-2.32-11.29,2.13-14.21,6.71-.18.24-.33.48-.48.72s-.15.24-.23.36l-.2.29c-1.7,2.84-3,4.88-4.79,5.32a9.51,9.51,0,0,1-4.24-.43c-2.39-.54-5.38-1.22-8.5-.23-5.61,1.73-7.72,7.33-9.25,11.42-1.28,3.4-2.39,6.05-4.12,6.54a8.83,8.83,0,0,1-3.17-.08h-.14a14.86,14.86,0,0,0-6.85.37c-5.62,2-7.44,8-8.62,12.13l-.2.55c-.8,2.93-2.32,5.17-3.51,5.24l-1.34-.27-.41-.08a10.72,10.72,0,0,0-2.16-.27c-4.14,0-8.67,3.35-9.48,10.83l0,.37a4.22,4.22,0,0,1,0,.49c0,.33-.05.66-.06,1-.15,2.05-.31,4.16-1.15,5.05a11.09,11.09,0,0,1-1.06.68l-.68.41a16.29,16.29,0,0,0-2.41,1.58c-3.64,2.94-5.21,8.21-4,13.37a19.41,19.41,0,0,0,1.63,4.53,174,174,0,0,0-8.64,15.51l-.21.44q-1.12,2.3-2.18,4.62l6.37,2.88c.38-.83.79-1.65,1.18-2.48l.24-.5a165.81,165.81,0,0,1,10.24-18.43l1.16-1.81-1.09-1.85a15.38,15.38,0,0,1-1.87-4.44c-.59-2.58.05-5.15,1.63-6.43a11.69,11.69,0,0,1,1.5-.95l.12-.07.59-.35a15.09,15.09,0,0,0,2.13-1.46l.13-.11c2.88-2.73,3.15-6.63,3.38-9.8v-.25c0-.15,0-.31,0-.48s.06-.6.07-.88c.29-2.42,1.42-4.44,2.5-4.44a6.37,6.37,0,0,1,.76.13l.6.12,1.46.29.4,0c4.81.4,8.94-3.44,10.86-10l.19-.53c.82-2.92,1.95-6.93,4.29-7.74a9.17,9.17,0,0,1,3.8,0,14.78,14.78,0,0,0,5.9-.12c5.32-1.52,7.34-6.9,8.82-10.84,1.42-3.78,2.59-6.52,4.78-7.19,1.34-.43,3.13,0,4.83.37,2.6.62,5,1.07,7.56.39,4.59-1.15,7-5.12,9-8.36.16-.23.3-.45.45-.68a2.64,2.64,0,0,1,.23-.35l.16-.24c1.55-2.47,4.11-4.72,5.81-4l.22.08a4.78,4.78,0,0,1,.94.62l.34.24a11.83,11.83,0,0,0,2.14,1.44c7.32,3.75,14.81-3.56,17.64-6.31,3.38-3.31,7.92-5.61,10.12-3.68a7.28,7.28,0,0,1,.57.71l.33.43a9.43,9.43,0,0,0,1.85,2.09c4.07,3.66,10.14,2.37,14.07-.38a38.14,38.14,0,0,0,4-3.34l.64-.56A25.16,25.16,0,0,1,618,61a3.69,3.69,0,0,1,1.84-.54,8.24,8.24,0,0,1,.38,1l.06.17c.06.2.11.38.16.56.11.36.22.77.41,1.24l.12.26a7.38,7.38,0,0,0,5,3.85c3.16.72,7.34-.27,10.65-2.52l1.3-1c2.63-1.89,5.36-3.85,7.51-3.17,1.3.4,2.55,2,3.59,3.34l.25.32a15.21,15.21,0,0,0,4.86,4.5c5.13,2.74,10.4.34,15.06-1.78l.36-.16c3.53-1.65,6.2-2.78,8.27-2.48-.64-2.26-1.37-4.59-2.21-7-3.19.38-6.29,1.83-9,3.1Z"/><path d="M576.43,427.35v0a62.94,62.94,0,0,0,6.6,1.57,71.66,71.66,0,0,0,8,1c1.63.13,3.35.2,5.14.2a4.87,4.87,0,0,1,1.2.1c15.5-.3,28.2-6.2,36.6-17l-6.2-4.8c-10.16,13.14-25.92,14.58-36.8,13.68a60.53,60.53,0,0,1-12.1-2.18Z"/><path d="M410,317.77a6.3,6.3,0,0,0-2,4.4,6.83,6.83,0,0,0,6.6,6.8,6.38,6.38,0,0,0,4.64-11.23A16.69,16.69,0,0,0,410,317.77Z"/><path d="M410,317.77a16.69,16.69,0,0,1,9.26,0,18.21,18.21,0,0,1,8.46,5.33l5.9-5.2c-.2-.2-17-18.9-38.6-.4l5.1,5.9A26.26,26.26,0,0,1,410,317.77Z"/><path d="M478.83,317.08a6.15,6.15,0,0,0-2,4.39,6.83,6.83,0,0,0,6.6,6.8A6.37,6.37,0,0,0,488.05,317,16.56,16.56,0,0,0,478.83,317.08Z"/><path d="M463.92,316.77l5.1,5.9a25.73,25.73,0,0,1,9.81-5.59,16.56,16.56,0,0,1,9.22,0,18.92,18.92,0,0,1,8.57,5.33l5.9-5.2C502.32,317,485.52,298.27,463.92,316.77Z"/><path d="M448.72,365.77l-.4,7.8c2.7.1,5.6.2,8.5.2,7.2,0,14.2-.7,16.9-2.7,2.4-2.1,2.1-5.3-1.1-14.9-1.8-5.2-4.5-12.3-8-21-6-14.8-12.4-29.5-12.5-29.6l-7.2,3.1c10.1,23,20.5,49,22.2,56.7C463.72,366,456.22,366.17,448.72,365.77Z"/><path d="M451.82,399.37a24.37,24.37,0,0,0,2.7-.1l-.6-7.8c-17,1.3-18.7-14.1-18.9-15.9l-7.8.6C427.22,376.37,429.32,399.37,451.82,399.37Z"/><path d="M497.32,298.87l4.6-6.3c-7.7-5.6-26.5-12.3-43.3,2.1l5.1,5.9C479.92,286.67,496.52,298.37,497.32,298.87Z"/><path d="M428.92,305.37l4.6-6.3a36.74,36.74,0,0,0-23.67-6.41,28.75,28.75,0,0,1-4.14,8.63C418,297.66,428.37,304.9,428.92,305.37Z"/><path d="M382.13,470.59a26.73,26.73,0,0,1,4-5.82l5.6,5.4-2.8-2.7,2.8,2.7a15.15,15.15,0,0,0-1.28,1.63c6.81.89,13.79,1.57,20.61,2.06a26.9,26.9,0,0,1,3-5.39l6.3,4.7a13.56,13.56,0,0,0-.77,1.2c4.56.23,9,.37,13.1.41-.57-.33-.93-.51-.93-.51l2.09-4.63L344.48,459l-.09-2.07a12.18,12.18,0,0,0-1.6,1.14l9.67,5.33a18.25,18.25,0,0,1,3,.81C362.69,466.84,372,469,382.13,470.59Z"/><path d="M460.24,491l-.05-.06-.18.6C460.1,491.38,460.17,491.2,460.24,491Z"/><path d="M454.54,472.12v.11l-14.48-1.84-.1,0a32.38,32.38,0,0,1,4.56,4.3c1.43-.05,2.81-.12,4.1-.2,5.4-.4,9.1.7,10.9,3.2,2.64,3.55,1.67,9.59.69,13.18l.11,0a13.28,13.28,0,0,0,.9-5.36l7.74-.89a18.53,18.53,0,0,0-3.14-11.51,14.5,14.5,0,0,0-3.41-3.27l0,3.25Z"/><path d="M454.58,466.9a30.53,30.53,0,0,0-6.36-.23c-33.7,2-75.2-4.4-90.1-9.9a23.43,23.43,0,0,0-5.91-1.4l.15,3.85,81.47,10.37,1.09-2.42a30.2,30.2,0,0,1,5,3.2l.1,0,14.48,1.73Z"/><polygon points="484.12 507.18 483.89 506.97 484.12 507.26 484.12 507.18"/><polygon points="472.62 505.91 471.88 506.82 476.42 510.77 477.2 534.08 477.22 534.08 476.42 510.47 472.62 505.91"/><path d="M464,499.93l2,1.78,1.56-1.88-1.87-2.24A21,21,0,0,1,464,499.93Z"/><path d="M462.72,501.27c.45-.44.86-.89,1.25-1.34a21,21,0,0,0,1.73-2.34L460.24,491c-.07.18-.14.36-.23.54a13.35,13.35,0,0,1-3,4.21,19.15,19.15,0,0,1-6.56,4,43.3,43.3,0,0,1-2.14,6.95l-7.3-2.9c.27-.68.51-1.36.73-2a82.15,82.15,0,0,1-20.93-.67c-1.23-.17-2.41-.37-3.57-.6.2.7.42,1.39.67,2.1l-.29.1c3.59,2.47,6.86,4.8,9.84,7q3.78.29,7.25.29C447.32,510,456.72,507,462.72,501.27Z"/><path d="M460.32,490.83l6-1.36a7.83,7.83,0,0,1,2.51-.18,21,21,0,0,0,.19-4.72H469l-7.74.89A13.28,13.28,0,0,1,460.32,490.83Z"/><path d="M444.52,474.67a32.38,32.38,0,0,0-4.56-4.3l-6.15-.73-2.09,4.63s.36.18.93.51a24.36,24.36,0,0,1,7.07,6.39c4.06,5.63,4.71,12.54,2,20.57-.22.67-.46,1.35-.73,2l7.3,2.9a43.3,43.3,0,0,0,2.14-6.95C453,488.05,449.07,479.9,444.52,474.67Z"/><path d="M433.83,469.59l6.13.78a30.2,30.2,0,0,0-5-3.2Z"/><path d="M417.25,500.47c-3.92-13.33.41-22.86,2.3-26.1a13.56,13.56,0,0,1,.77-1.2l-6.3-4.7a26.9,26.9,0,0,0-3,5.39,41,41,0,0,0-2.69,22.64c3.31,2.15,6.39,4.2,9.27,6.17l.29-.1C417.67,501.86,417.45,501.17,417.25,500.47Z"/><line class="cls-2" x1="388.92" y1="467.47" x2="391.72" y2="470.17"/><path d="M391.72,470.17l-5.6-5.4a26.73,26.73,0,0,0-4,5.82,33.54,33.54,0,0,0-2.93,8c2.46,1.44,4.83,2.85,7.14,4.23a24.6,24.6,0,0,1,4.1-11A15.15,15.15,0,0,1,391.72,470.17Z"/><path d="M471.88,506.82l.74-.91-5.05-6.08L466,501.71l-15.79,19.06.57,9.88q1.45,1.77,2.62,3.42h5.42l-.61-10.7Z"/><path d="M526.52,519.17a163.36,163.36,0,0,0-14.34-9.44c-2.59-1.51-5-2.84-7.23-4a114.74,114.74,0,0,0-11.75-5.37,6.78,6.78,0,0,1,1.72,1.89,5.92,5.92,0,0,1,.4.6,103,103,0,0,1,5.21,9.37,148,148,0,0,1,31.83,21.83h11.19A138.27,138.27,0,0,0,526.52,519.17Z"/><path d="M490.32,507.57l-1.2-.13a113.31,113.31,0,0,1,11.71,26.63h8.08a136.24,136.24,0,0,0-8.38-21.83C495.3,509.57,491.54,508.05,490.32,507.57Z"/><polygon points="484.22 507.37 484.12 507.26 483.89 506.97 483.8 506.87 472.82 505.68 472.62 505.91 476.42 510.47 477.22 534.08 485.08 534.08 484.22 508.68 484.22 507.37"/><path d="M468.83,489.29a7.83,7.83,0,0,0-2.51.18l-6,1.36-.11,0-.09,0,.07.09.05.06,5.46,6.57,1.87,2.24,1.95-2.36,22.7,2.5.4.2.58.21c-1.57-1.31-4.56-3.27-10.48-6.21C475.3,490.47,471.17,489.46,468.83,489.29Z"/><path d="M492.22,500l-22.7-2.5-1.95,2.36,5.05,6.08.2-.24,11,1.2-5.28-6.4a68.53,68.53,0,0,1,9.7,5.5,9.22,9.22,0,0,0,.5.8c.14.22.27.45.4.67l1.2.13c1.22.48,5,2,10.21,4.67a103,103,0,0,0-5.21-9.37,5.92,5.92,0,0,0-.4-.6,6.78,6.78,0,0,0-1.72-1.89l-.58-.21Z"/><path d="M469,452.67c1-.3,1.9-.6,2.9-.8,6.6-1.7,13.3-3.4,19-8.8,13.2-12.4,20.8-30.3,23.1-54.8a642.18,642.18,0,0,0,2.7-78.2,172.77,172.77,0,0,0-3.88-33.6c.15-.21-3.49-8-5.36-4.6a11.49,11.49,0,0,1-3.08,2.69c-3.29,1.37-8.15.87-12.31-.75-1.36-.53-2.71-1.11-4.14-1.73-5.45-2.38-11.62-5.07-18.25-3.85-4.36.78-8.08,3.1-11.68,5.33-4.31,2.68-8,5-11.69,4a17,17,0,0,1-5.19-3,31.59,31.59,0,0,0-5-3.18c-8.26-4-17-.78-25,4q-2.1,1.26-4.11,2.63l-4-.1c0,1.26,0,2.44,0,3.51,0,10.4,0,16.7-27.9,38-19.6,15-16,24.5-8.8,36.2,5,8,10.1,16.4,3.7,31.6l-.1.3-.1.3c-.1.8-4.7,19.7-24.6,28.1l-2.5,1.1,1.67,39.82.09,2.07,89.33,10.68,6.15.73.1,0-.1,0-6.13-.78-81.47-10.37-.15-3.85L350.92,422c20.3-9.9,25.8-29.1,26.6-32.1,7.7-18.8.7-30.2-4.4-38.5-5.7-9.3-8.6-14,6.9-25.9,13.76-10.54,21.43-17.93,25.69-24.18a28.75,28.75,0,0,0,4.14-8.63,35,35,0,0,0,1.14-8.84c7.36-4.94,15.58-9.25,22.13-6.08a24.65,24.65,0,0,1,3.88,2.51,22.93,22.93,0,0,0,7.53,4.11c6.6,1.72,12.22-1.77,17.18-4.85,3.18-2,6.19-3.84,9.24-4.39,4.54-.83,9.24,1.21,14.21,3.37,1.43.63,2.91,1.27,4.39,1.85,5.29,2.05,11.43,2.77,16.43,1.14a170.08,170.08,0,0,1,2.94,28.79,646.94,646.94,0,0,1-2.7,77.2c-2.2,22.5-8.9,38.8-20.7,49.9-3.51,3.35-7.79,4.87-12.66,6.22l2.36,7.28a65.32,65.32,0,0,1-19.7,2.9h-.85l-.09,13.13,0,5.22,7.85.93,0-3.25v-1.24l-1,.14v-7.06l1.05-.14,0-7.73C465.42,453.37,468.42,452.87,469,452.67Z"/><polygon points="454.54 472.12 440.06 470.38 454.54 472.23 454.54 472.12"/><path d="M401.51,176.86c-.76.55-1.52,1.1-2.26,1.68h0c-1,.78-2,1.57-2.94,2.39-1.39,1.18-2.75,2.4-4.09,3.64h0c-1.33,1.23-2.64,2.49-3.94,3.75l-2.32,2.27c-1.07,1.05-2.14,2.1-3.21,3.13l-.08.07q-1.61,1.56-3.22,3h0c-.78.72-1.56,1.42-2.34,2.11l-.13.11a67.08,67.08,0,0,1-7.47,5.73h0a43.93,43.93,0,0,1-6.75,3.65,75.52,75.52,0,0,1-12.87,3.83v0q.67,3.4,1,6.9a83.07,83.07,0,0,0,14.6-4.34c10.05-4.3,17.82-11.92,25.34-19.3,1.7-1.66,3.37-3.3,5.05-4.88.86-.81,1.72-1.61,2.58-2.39l.7-.61c.75-.66,1.51-1.32,2.27-2l.26-.21c.69-.57,1.38-1.13,2.09-1.67l.66-.49c.6-.44,1.19-.89,1.81-1.31s1.52-1,2.3-1.5l.22-.15h0l.25-.14c.88-.53,1.77-1,2.69-1.5.77-.4,1.57-.76,2.38-1.11l.51-.22c.78-.32,1.57-.62,2.37-.89l.53-.17c.71-.24,1.44-.45,2.17-.65l.48-.13q1.18-.3,2.4-.54l.84-.15c.77-.14,1.56-.27,2.35-.37l.87-.09,1.74-.15,1.06-.08c.73,0,1.46-.05,2.2-.05.42,0,.85,0,1.27,0s.94,0,1.41.05c.69,0,1.37.07,2.05.13.42,0,.83.07,1.25.12s1,.1,1.45.17c.66.09,1.31.19,2,.3h.07l1.83.36.95.21c.57.13,1.13.26,1.7.41l1.13.31c.53.15,1.05.29,1.57.46.83.26,1.66.53,2.48.84l1.07.41,1.74.7,1.06.47c.61.28,1.21.56,1.81.86l.89.44c.88.46,1.76.94,2.63,1.44s1.88,1.16,2.8,1.76l.63.42c.87.59,1.73,1.19,2.56,1.81l.5.38c.69.53,1.37,1.07,2,1.61l.66.54c.73.62,1.45,1.25,2.14,1.89l.74.69,1.59,1.53.62.62.62.66h0a82.3,82.3,0,0,1,6.87,8.23l.37.51,1.15,1.62.59.88.93,1.4.75,1.2c.24.38.48.76.71,1.14.44.72.86,1.43,1.26,2.14l.09.15c.12.21.22.41.34.61,1.36,2.44,2.57,4.82,3.62,7.09.35.76.69,1.51,1,2.24,1.59,3.54,3,7.28,2.35,10.74l-.45,2.48,2.2,1.21a49.4,49.4,0,0,1,25.09,44.68c-.12,2.8-.48,5.58-.85,8.52a83.84,83.84,0,0,0-1,12c.13,9.7,3.46,18.68,6.67,27.36a139.78,139.78,0,0,1,4.83,14.72q.26,1.1.48,2.19c.05.24.1.49.14.73q.15.74.27,1.47l.15.88c.07.44.13.88.19,1.32s.09.63.13.95.1.84.14,1.27.07.65.1,1,.07.84.1,1.26,0,.65.07,1,0,.89.07,1.33c0,.67,0,1.34.06,2,0,.31,0,.62,0,.93s0,.9,0,1.35c0,.27,0,.54,0,.82,0,.47,0,.94,0,1.41l0,.73c0,.5,0,1-.07,1.49,0,.2,0,.39,0,.59L533,367a1.23,1.23,0,0,0,0,.19c-.23,2.67-.58,5.33-1,8,0,.19-.06.39-.1.58-.19,1.11-.39,2.22-.61,3.32l-.06.29c-.22,1.08-.45,2.16-.69,3.23,0,.07,0,.15,0,.22l-.06.28c-2.75,11.89-7.06,23.54-11.36,34.39-4.75,12.13-9.77,23.64-18.89,31.19-9.8,8.2-22.87,10.83-37.7,12.81l-1.05.14v7.06l1-.14c15.81-2.07,30.84-5,42.23-14.49,10.4-8.61,15.83-21,20.92-34A263.49,263.49,0,0,0,536.44,388,125.19,125.19,0,0,0,540,367.41c.06-.73.11-1.46.16-2.19l0-.56c0-.54,0-1.07.08-1.61,0-.25,0-.5,0-.75,0-.51,0-1,0-1.52,0-.29,0-.57,0-.86v-1.44c0-.33,0-.65,0-1,0-.68,0-1.36-.08-2,0-.51,0-1-.08-1.51,0-.35,0-.7-.08-1s-.07-.91-.11-1.36-.08-.69-.11-1-.11-.92-.16-1.37-.09-.67-.14-1-.14-.95-.22-1.43c-.05-.31-.09-.62-.15-.94-.09-.52-.19-1-.29-1.58,0-.26-.1-.52-.16-.78-.16-.79-.33-1.58-.52-2.37s-.4-1.57-.62-2.36c-1.25-4.48-2.87-8.87-4.45-13.13-1.67-4.53-3.29-8.93-4.47-13.33a53.87,53.87,0,0,1-1.44-7.26,38.66,38.66,0,0,1-.32-4.44,79.2,79.2,0,0,1,.89-11c.25-1.91.49-3.87.67-5.85.1-1.07.19-2.15.24-3.24a54.4,54.4,0,0,0-3.47-21.52,58,58,0,0,0-7.44-13.8A55.15,55.15,0,0,0,502,230.48a20.06,20.06,0,0,0-.43-4.53,36.54,36.54,0,0,0-2.61-7.66.61.61,0,0,1-.05-.12c-.27-.62-.57-1.26-.86-1.9s-.56-1.2-.86-1.81l-.15-.32v0c-.32-.66-.65-1.32-1-2l0,0c-1.05-2-2.2-4.16-3.48-6.3h0c-.06-.11-.12-.22-.19-.33-.26-.43-.52-.86-.79-1.29s-.65-1-1-1.57c-.21-.33-.42-.66-.64-1-.44-.65-.88-1.3-1.34-2l-.89-1.24c-.24-.35-.5-.69-.75-1-.56-.75-1.13-1.5-1.72-2.24l-.58-.72c-.85-1-1.72-2.09-2.63-3.11-.42-.47-.84-.94-1.27-1.4h0l0,0c-1.06-1.15-2.17-2.27-3.33-3.38l-.56-.55-1.48-1.35-1.14-1c-.43-.37-.85-.75-1.29-1.11-.8-.66-1.62-1.3-2.46-1.94-.3-.23-.62-.45-.93-.68-.68-.49-1.37-1-2.07-1.46-.31-.21-.61-.42-.93-.62-1-.66-2-1.3-3.05-1.91-.62-.37-1.25-.69-1.87-1h0c-.72-.4-1.45-.79-2.18-1.15h0A64.45,64.45,0,0,0,446.77,169h0l-1.65-.39-1.18-.25c-1.12-.23-2.24-.42-3.36-.59l-.45-.07c-.71-.1-1.41-.18-2.11-.25-1.36-.14-2.72-.23-4.07-.28h-.55a54.19,54.19,0,0,0-6,.17l-.38,0q-1.72.16-3.42.42l-.56.09c-1.12.19-2.24.41-3.34.67l-.35.08a49.57,49.57,0,0,0-5.56,1.68c-.86.32-1.72.65-2.55,1l-.32.15h0c-.81.36-1.61.72-2.39,1.12s-1.71.91-2.55,1.4h0c-1.53.9-3,1.87-4.46,2.89Z"/><path d="M423.92,432l-6.2,4.8c8.4,10.9,21,16.7,36.6,17h1.2a65.32,65.32,0,0,0,19.7-2.9l-2.36-7.28,0-.12C472.52,443.57,440.62,453.57,423.92,432Z"/><path d="M163,282.92l0-.11-1.63.13C161.87,282.91,162.43,282.91,163,282.92Z"/><path d="M338.7,298.33c1.48,27.8,2.12,55.11.12,68.74-1.9,13.1-9.6,23.8-22.9,31.7a72,72,0,0,1-20.2,8.3l-.22.05.52-.05.8,7.8c-1.41.11-2.81.18-4.2.23v12.77c0,.2,1,16.2-10.3,28.2-8.8,9.3-22.5,14-40.8,14-22.9,0-40.9-7.8-53.6-23.3a65.71,65.71,0,0,1-12.4-23.38l.41,9.49.48,11.31a74.2,74.2,0,0,0,5.21,7.28,69.3,69.3,0,0,0,7.57,8l2.23-2.82,6.12,4.84-2.26,2.86a69.73,69.73,0,0,0,13,7.3l1.5-3.52,7.18,3-1.34,3.17a82.77,82.77,0,0,0,15.73,3.14l-.13-3.5,7.79-.28.16,4.26q1.1,0,2.22,0a97.18,97.18,0,0,0,14-1l-.94-3.08,7.47-2.26,1.15,3.81A58.24,58.24,0,0,0,274,471.58l-2.26-1.92,5.06-5.94,4.31,3.67a43.32,43.32,0,0,0,6.85-6,44.93,44.93,0,0,0,4-5L294,427.2h.11l.18-2.54,2.8-.6a6.16,6.16,0,0,1,3.1.18V414a86.33,86.33,0,0,0,19.3-8.3c15.3-9.1,24.6-22,26.8-37.4,2.28-15.82,1.25-48.31-.59-79.45h0A32.08,32.08,0,0,1,338.7,298.33Z"/><path d="M175.5,422.91v0L173.62,368l-.06-1.6,0-.57-1.32-38.48h-3.8a22.24,22.24,0,0,1-19.1-10.6c-4.9-7.8-5.3-18.4-.8-25.9a15.5,15.5,0,0,1,12.2-7.88l-1.12.1-.65-7.77,1.82-.16v0a23.49,23.49,0,0,0-19.34,11.73c-.41.69-.78,1.4-1.12,2.12s-.68,1.51-1,2.28c-.06.17-.11.33-.17.49-.23.63-.43,1.26-.62,1.9l-.17.62c-.17.64-.31,1.28-.44,1.92l-.12.57q-.23,1.23-.36,2.49a34,34,0,0,0,5,21.71,30.52,30.52,0,0,0,21.9,14l1,25.23.31,8.16.82,21.76.31,8,.91,24,7.59-5.88Z"/><path d="M236.72,389.07l-4.9,6.1c1.1.9,25.6,20,57,20,1.25,0,2.52,0,3.8-.07s2.79-.12,4.2-.23l-.8-7.8-.52.05C263.83,410.14,237,389.27,236.72,389.07Z"/><path d="M282,350a24.37,24.37,0,0,0,2.7-.1l-.6-7.8c-16.9,1.3-18.7-14.1-18.9-15.9l-7.8.6C257.42,327,259.52,350,282,350Z"/><path d="M286.23,265.16c-2.29-5.37-3.86-8.94-3.91-9l-7.2,3.1c1.67,3.82,3.36,7.72,5,11.6H285A31.05,31.05,0,0,1,286.23,265.16Z"/><path d="M297.32,316c-3.4.6-10.9.8-18.4.4l-.4,7.8c2.7.1,5.6.2,8.5.2,7.2,0,14.2-.7,16.9-2.7,2.4-2.1,2.1-5.3-1.1-14.9-.39-1.13-.84-2.38-1.32-3.69A32.18,32.18,0,0,1,285,278.67h-1.54C290.32,295.3,296.09,310.41,297.32,316Z"/><path d="M258.62,241l5.1-5.9c-16.8-14.4-36.6-7.1-44.7-1.2l4.6,6.3C224.42,239.57,242.42,227.07,258.62,241Z"/><path d="M296.42,233.87l4.6,6.3c.61-.43,13.35-9.35,27.32-2.48-.45-2-.89-4.18-1.32-6.42-.18-.84-.37-1.72-.56-2.62C313.88,225,302.05,229.73,296.42,233.87Z"/><path d="M122.84,465.16l0-8.29,2-1.54c-1,.51-3.82,1.92-7.89,4.05-2,1.06-4.41,2.32-7,3.73-7.59,4.07-17.36,9.48-27.89,15.73-2.34,1.39-4.72,2.82-7.12,4.29-6.35,3.88-12.85,8-19.21,12.29q-3.42,2.31-6.77,4.65c-6.35,4.47-12.43,9.05-17.95,13.63a72.81,72.81,0,0,0,6.21,4.9,369.1,369.1,0,0,1,37.16-25.93C94.23,480.33,113.59,470,122.84,465.16Z"/><path d="M427.47,509.68c-3-2.21-6.25-4.54-9.84-7-2.88-2-6-4-9.27-6.17-6.44-4.19-13.75-8.74-22-13.68-2.31-1.38-4.68-2.79-7.14-4.23-8-4.71-16.92-9.77-26.74-15.23L342.79,458c-7.31-4-15.07-8.18-23.35-12.58,2,3.3,4.11,7.08,6.38,11.42l.95,1.53C402.56,499.25,431,520,443.24,534.07h10.17q-1.17-1.65-2.62-3.42C446.06,524.89,438.9,518.17,427.47,509.68Z"/><polygon points="176.41 444.19 175.93 432.88 175.65 433.13 176.47 452.13 176.75 452.11 176.41 444.19"/><path d="M167.45,424.24l6.87-.3,1.18-1-.28-6.64-7.59,5.88-25,19.38-6.17,4.78-11.64,9,.3-.16,1.2-.6,13.2-.64,4.63-3.59,23.54-20.6Z"/><path d="M153.62,493l-22.7-.1-.09-29.34-3.51-.66c-1,.48-2.49,1.26-4.48,2.29l.08,35.51,20.2.1-8.8,30.9,1.69,2.4h9.48l-2.67-3.8Z"/><polygon points="197.74 534.08 197.75 534.08 185.75 502.19 197.74 534.08"/><polygon points="170.42 483.18 170.64 483.76 173.96 482.52 170.42 482.67 170.42 483.18"/><polygon points="177.69 473.99 176.75 452.11 176.47 452.13 177.43 474.31 177.44 474.31 177.69 473.99"/><polygon points="136.28 456.44 139.52 453.93 126.32 454.57 136.28 456.44"/><path d="M125.12,455.17l-.3.16-2,1.54,0,8.29c2-1,3.52-1.81,4.48-2.29l3.51.66v-2.86l5.46-4.23-10-1.87Z"/><polygon points="144.15 450.34 167.79 432.01 167.69 429.75 144.15 450.34"/><polygon points="175.52 423.39 175.5 422.93 175.5 422.91 174.32 423.94 175.24 423.9 175.65 433.13 175.93 432.88 175.52 423.39"/><polygon points="294.62 530.17 300.51 448.23 300.35 448.19 294.52 529.49 286.82 528.94 286.82 528.97 285.55 534.08 293.62 534.08 294.52 530.47 294.62 530.17"/><path d="M321.92,508.87l29.9-10.3L326.77,458.4l-11.25-6-1.27-.34c1.46,2.53,3,5.35,4.67,8.54l21.1,33.8-28.7,9.9,8.8,19.7-4.5,10.1h8.5l4.5-10.1Z"/><path d="M300.22,424.25a6.16,6.16,0,0,0-3.1-.18l-2.8.6-.18,2.54,7.67.55-.88,12.37.16.05.43-6a55.72,55.72,0,0,1,6.47,7.91L318.52,445l.4.2.52.28C310.34,430.34,304.15,425.42,300.22,424.25Z"/><path d="M310.35,445.59c1.21,1.88,2.51,4,3.9,6.44l1.27.34,11.25,6-.95-1.53c-2.27-4.34-4.4-8.12-6.38-11.42l-.52-.28Z"/><polygon points="300.5 446.07 300.67 446.06 301.09 440.18 300.93 440.13 300.5 446.07"/><polygon points="300.35 448.19 300.51 448.23 300.67 446.06 300.5 446.07 300.35 448.19"/><path d="M318.52,445,308,442.08c.75,1.06,1.53,2.23,2.36,3.51l8.57-.42Z"/><path d="M163.22,304.77a9.34,9.34,0,0,1,1.85-6.37c-.21-2.45-.35-5.13-.45-8a9.71,9.71,0,0,0-.05-1.36,16.64,16.64,0,0,0-9.15,16.46c.7,7,5.7,12.1,13.1,13.3l.92-5.37a10,10,0,0,1-1.88-2.86A6.69,6.69,0,0,1,163.22,304.77Z"/><path d="M239.92,307a32.14,32.14,0,0,0,31.87-28.3h-3.67v-7.8h3.64a32.09,32.09,0,0,0-63.72.32l3.13-.27.65,7.78-3.73.31A32.15,32.15,0,0,0,239.92,307Zm0-56.4a24.3,24.3,0,1,1-24.3,24.3A24.39,24.39,0,0,1,239.92,250.57Z"/><path d="M268.12,278.67H285a31.65,31.65,0,0,1-.23-3.8,31.25,31.25,0,0,1,.26-4H268.12Z"/><path d="M236.52,271.44a6.38,6.38,0,0,0,4.4,11.43,6.83,6.83,0,0,0,6.6-6.8,6.26,6.26,0,0,0-1.58-4A17.33,17.33,0,0,0,236.52,271.44Z"/><path d="M236.52,271.44a17.33,17.33,0,0,1,9.42.64,27.37,27.37,0,0,1,8.68,5.19l5.1-6c-21.6-18.5-38.4.2-38.6.4l5.9,5.2A18.77,18.77,0,0,1,236.52,271.44Z"/><path d="M164.52,288.47v.3a1.44,1.44,0,0,1,0,.24,9.71,9.71,0,0,1,.05,1.36c.1,2.9.24,5.58.45,8,.44,5.14,1.18,9.26,2.49,12.14a10,10,0,0,0,1.88,2.86,6,6,0,0,0,3.18,1.77,15.53,15.53,0,0,0,3.1.3c5,0,11.4-2.6,17.5-12.6a75.41,75.41,0,0,0,9.88-23.44l-8.2.69a66.64,66.64,0,0,1-8.28,18.65c-3.9,6.1-7.8,9-11.7,8.6-.7-1.2-1.9-5-2.1-17.5,0-1.2-.1-1.8-.1-2.2s-.1-.5-.1-.8v-.3l-.1-.3c-.34-1.1-.73-2.5-1.16-4.17l-8.39.71,0,.11C163.57,285.16,164.09,287,164.52,288.47Z"/><path d="M216.32,147.27a20.68,20.68,0,0,0-19.9,8.5,18.8,18.8,0,0,0-6.61,1.81,21.93,21.93,0,0,0-7.6,6.2,27,27,0,0,0-3.29,5.29,18.56,18.56,0,0,0-7.8,3.9l-.3.2c-5.6,5.6-6.6,11.5-6.1,16.2a19.62,19.62,0,0,0-7.3,19.5c-2.4,3.1-6,9.9-3,20.2-1.6,3.6-4.7,12.2-.3,19.2-2.4,4.1-4.8,12,3.4,21.3l3.24,5.57v0l8.79-.74h0c-.05-.21-.09-.43-.14-.65l-.1-.6-4.9-8.5-.3-.3c-6.9-7.6-2.7-12.5-1.8-13.4l3-2.8-2.9-2.9c-4.8-4.8.3-13.9.3-14l.9-1.6L163,228c-3.5-10,1.7-14.9,1.9-15.1l1.9-1.7-.7-2.5c-2.7-9.4,4.5-13.6,5.3-14l2.8-1.4-.7-3c-1.1-4.3,0-8,3.3-11.4.9-.7,3.3-2.3,5.4-2.3h2.9l.9-2.8c.1-.4,3.5-10.3,12.8-10.3h2.8l1.1-2.2c.5-.8,4.5-8,14.2-6l1.9.4,1.5-1.2a17.62,17.62,0,0,1,15.9-2.6l1.9.6,1.6-1.2a15.23,15.23,0,0,1,6.33-2.25h0a22.46,22.46,0,0,1,11.67,1.65l1.8.7,1.7-.9a13.62,13.62,0,0,1,13.9,1.4l1.7,1.2,2-.7c.4-.1,11.3-3.9,16.8,4.7l1.6,2.4,2.7-.6c.9-.2,9.2-1.8,14.7,8.4l1.1,2,.52,0,1.68.07a11.79,11.79,0,0,1,2.74.52c3.35,1,8.85,3.85,11.26,12l.6,2.1,2.1.6c1.5.4,9.1,3.2,6.6,13l-2.2,5.3.5,1.5c5.1,13.9,5.4,29.1.8,45.4-.9-2.5-1.9-5.5-2.9-9.3-.8-2.9-1.6-6.6-2.4-10.6-3.7-17.8-8.4-40-23.8-41l-4-.2-.3,4a12.79,12.79,0,0,1-4.1,8.1c-3.1,2.7-7.8,3.8-13.9,3.3h-.4a21.46,21.46,0,0,1-7.3-1.2l-.3-.1c-6.1-1.6-11.7-4.4-17.6-7.5s-11.8-6.1-18.5-7.9c-19.6-5.2-34.8,9.2-41.9,23.1-7.5,14.8-7,30.1-6.5,45,.2,3.9.3,7.9.3,11.9,0,1.57-.13,3.18-.31,4.8l7.92-.67c.13-1.46.19-2.9.19-4.33,0-4.1-.2-8.2-.3-12.2-.5-14.5-1-28.2,5.6-41.1,9.2-17.9,23-21.6,32.8-19,5.8,1.6,11.2,4.4,16.9,7.3,6,3.1,12.2,6.3,19.2,8.1a29.3,29.3,0,0,0,9.6,1.6c8.3.6,14.9-1.2,19.7-5.4a20.62,20.62,0,0,0,5.7-8.8c6.68,4.09,10.26,19.3,12.74,31,.19.9.38,1.78.56,2.62.43,2.24.87,4.41,1.32,6.42.38,1.69.77,3.27,1.18,4.68.34,1.23.66,2.38,1,3.48a32.32,32.32,0,0,1,14.65,14c5.15-14,7.06-27.72,5.74-40.59q-.36-3.49-1-6.9a71.39,71.39,0,0,0-1.79-7.09c-.24-.79-.48-1.58-.75-2.37l1.1-2.6.2-.5a23.07,23.07,0,0,0,.5-2.29,18.6,18.6,0,0,0-.85-10.19c-.07-.16-.13-.31-.19-.47h0a17.9,17.9,0,0,0-5.71-7.11l-.64-.46a19.5,19.5,0,0,0-3.11-1.78,24.13,24.13,0,0,0-18.4-16c-.2-.31-.41-.59-.62-.89-5.86-8.42-14-10.3-19.28-10-6.6-7.9-16.7-7.8-22.7-6.3a21.48,21.48,0,0,0-19-1.5,29.55,29.55,0,0,0-16.43-1.05h0a24.6,24.6,0,0,0-5.87,2.15c-.65-.15-1.29-.28-1.93-.38a24.86,24.86,0,0,0-6.73-.2,26.1,26.1,0,0,0-8,2.17A27.07,27.07,0,0,0,216.32,147.27Z"/><path d="M339.12,265.23a24.07,24.07,0,0,0-3.88-6.17,21.43,21.43,0,0,0,2.18,3.91Z"/><path d="M287.86,483.39a76.6,76.6,0,0,1-19.19,10.46l.73,2.42-7.47,2.25-.68-2.25A91.1,91.1,0,0,1,240,499.51l.14,3.85-7.79.28-.15-4.21a79.11,79.11,0,0,1-24.78-5.68l-1.78,4.19-7.18-3.05,1.85-4.37a97.6,97.6,0,0,1-17-11l-2.6,3.3-3-2.35,0,.64.07,0L180,487c10.72,8.36,30.7,20.41,56.5,20.41s43.64-9.11,52.87-15.42l.49-6.83Z"/><polygon points="177.43 474.31 177.43 474.32 177.44 474.31 177.43 474.31"/><polygon points="159.6 283.09 160.72 283 161.34 282.94 162.97 282.81 171.35 282.1 194.9 280.12 203.1 279.43 208.09 279.01 211.82 278.7 211.17 270.93 208.04 271.19 204.33 271.5 196.41 272.17 169.56 274.42 169.56 274.42 160.77 275.16 158.95 275.32 159.6 283.09"/><path d="M286.23,265.16a32.75,32.75,0,0,0-1.51,9.71,31.65,31.65,0,0,0,.23,3.8,32.1,32.1,0,1,0,1.28-13.51Zm52.89.07a24.44,24.44,0,1,1-3.88-6.17A24.24,24.24,0,0,1,339.12,265.23Z"/><path d="M311.73,271.69a6.37,6.37,0,0,0,4.69,11.18,6.83,6.83,0,0,0,6.6-6.8,6.31,6.31,0,0,0-1.89-4.31A16.85,16.85,0,0,0,311.73,271.69Z"/><path d="M297.32,271.67l5.9,5.2a18.89,18.89,0,0,1,8.51-5.18,16.85,16.85,0,0,1,9.4.07,26.14,26.14,0,0,1,9.69,5.51l5.1-6C314.32,252.77,297.52,271.47,297.32,271.67Z"/><polygon points="300.93 440.13 301.81 427.76 294.14 427.21 294.03 427.2 291.95 456.33 290.57 475.47 296.26 480.3 291.21 486.24 289.88 485.12 289.39 491.95 286.75 528.94 286.82 528.94 294.52 529.49 300.35 448.19 300.5 446.07 300.93 440.13"/><polygon points="174.55 477.97 177.43 474.32 177.43 474.31 176.47 452.13 175.65 433.13 175.24 423.9 174.32 423.94 167.45 424.24 167.69 429.75 167.79 432.01 169.99 482.69 170.42 482.67 173.96 482.52 177.73 481.1 177.7 480.46 174.55 477.97"/><polygon points="180.02 486.96 177.8 481.07 177.73 481.1 173.96 482.52 170.64 483.76 170.5 483.82 189.4 534.08 197.74 534.08 185.75 502.19 180.02 486.96"/><polygon points="197.54 461.47 191.42 456.63 189.19 459.45 177.69 473.99 177.44 474.31 177.43 474.32 174.55 477.97 177.7 480.46 180.66 482.81 183.27 479.51 195.28 464.33 197.54 461.47"/><polygon points="216.99 471.15 209.81 468.11 208.31 471.63 200.29 490.52 198.44 494.89 205.62 497.94 207.4 493.75 215.65 474.31 216.99 471.15"/><polygon points="239.04 473.68 231.25 473.96 231.38 477.46 232.18 499.43 232.33 503.64 240.12 503.36 239.98 499.51 239.2 477.94 239.04 473.68"/><polygon points="261.97 471.66 254.5 473.92 255.44 477 261.25 496.27 261.93 498.52 269.4 496.27 268.67 493.85 263.12 475.47 261.97 471.66"/><polygon points="276.75 463.72 271.7 469.66 273.96 471.58 287.86 483.39 289.88 485.12 291.21 486.24 296.26 480.3 290.57 475.47 281.07 467.39 276.75 463.72"/><rect x="479.98" y="82.47" width="7.8" height="20" transform="matrix(0.59, -0.81, 0.81, 0.59, 125.19, 430.15)"/><rect x="500.66" y="60.25" width="7.8" height="20.7" transform="translate(65.37 328.82) rotate(-38.42)"/><rect x="535.98" y="42.26" width="7.8" height="22.7" transform="translate(26.52 229.12) rotate(-24.55)"/><rect x="574.01" y="30.57" width="7.8" height="19.5" transform="translate(6.13 133.42) rotate(-13.24)"/><rect x="607.96" y="32.29" width="20.2" height="7.8" transform="translate(513.86 646.48) rotate(-83.66)"/><rect x="60.24" y="27.05" width="7.8" height="18.6" transform="translate(-9.47 40.46) rotate(-32.74)"/><rect x="89.63" y="16.64" width="7.8" height="19.5" transform="translate(-3.56 22.12) rotate(-13.24)"/><rect x="123.18" y="10.06" width="7.8" height="16.9" transform="translate(-1.33 16.96) rotate(-7.6)"/><rect x="151.08" y="14.89" width="16.4" height="7.8" transform="translate(113.71 172.56) rotate(-80.22)"/><rect x="181.18" y="23.77" width="20" height="7.8" transform="translate(76.04 182.78) rotate(-61.65)"/><path d="M466.42,379.17a5.08,5.08,0,0,0-5,5,5,5,0,0,0,10,0A5.08,5.08,0,0,0,466.42,379.17Zm0,7.8a2.8,2.8,0,1,1,2.8-2.8A2.86,2.86,0,0,1,466.42,387Z"/><rect x="542.12" y="289.55" width="24.8" height="6" transform="translate(-65.1 196.88) rotate(-19.04)"/><rect x="557.07" y="296.82" width="15.4" height="6" transform="translate(-67 201.21) rotate(-19.09)"/><rect x="623.39" y="289.95" width="20.8" height="6" transform="translate(-64.43 294.77) rotate(-24.96)"/><rect x="638.85" y="293.4" width="16.4" height="6" transform="translate(-64.57 307.61) rotate(-25.51)"/></svg>